<svg xmlns="http://www.w3.org/2000/svg" xmlns:xlink="http://www.w3.org/1999/xlink" viewBox="0 0 842.366 378.137">
  <defs>
    <style>
      .cls-1 {
        fill: #222238;
      }

      .cls-2 {
        fill: url(#linear-gradient);
      }

      .cls-3 {
        fill: #1e1e2d;
      }

      .cls-4 {
        fill: url(#linear-gradient-2);
      }

      .cls-10, .cls-11, .cls-12, .cls-19, .cls-22, .cls-25, .cls-5, .cls-7, .cls-8, .cls-9 {
        fill: none;
      }

      .cls-10, .cls-11, .cls-12, .cls-25, .cls-5, .cls-7, .cls-8, .cls-9 {
        stroke: #fff;
      }

      .cls-10, .cls-11, .cls-12, .cls-19, .cls-25, .cls-5, .cls-7, .cls-8, .cls-9 {
        stroke-linecap: round;
      }

      .cls-10, .cls-11, .cls-12, .cls-5, .cls-7, .cls-8, .cls-9 {
        stroke-width: 5px;
      }

      .cls-5 {
        opacity: 0.3;
      }

      .cls-6 {
        opacity: 0.21;
      }

      .cls-13, .cls-6 {
        fill: url(#linear-gradient-3);
      }

      .cls-7 {
        opacity: 0.71;
      }

      .cls-8 {
        opacity: 0.79;
      }

      .cls-9 {
        opacity: 0.14;
      }

      .cls-10 {
        opacity: 0.49;
      }

      .cls-11 {
        opacity: 0.53;
      }

      .cls-12 {
        opacity: 0.19;
      }

      .cls-14 {
        fill: url(#linear-gradient-5);
      }

      .cls-15 {
        fill: url(#linear-gradient-6);
      }

      .cls-16 {
        fill: url(#linear-gradient-7);
      }

      .cls-17 {
        fill: url(#linear-gradient-8);
      }

      .cls-18 {
        fill: url(#linear-gradient-9);
      }

      .cls-19 {
        stroke: #222238;
        stroke-linejoin: round;
        stroke-width: 0.2px;
      }

      .cls-20 {
        fill: url(#linear-gradient-10);
      }

      .cls-21 {
        fill: #5a5a82;
        font-size: 17px;
      }

      .cls-21, .cls-24 {
        font-family: Montserrat-SemiBold, Montserrat;
        font-weight: 600;
      }

      .cls-22 {
        stroke: #7555ff;
      }

      .cls-23, .cls-24 {
        fill: #7555ff;
      }

      .cls-24 {
        font-size: 13px;
      }

      .cls-25 {
        stroke-width: 7px;
        stroke-dasharray: 36;
        opacity: 0.39;
      }

      .cls-26 {
        filter: url(#Path_75);
      }
    </style>
    <linearGradient id="linear-gradient" y1="1" x2="1" y2="1" gradientUnits="objectBoundingBox">
      <stop offset="0" stop-color="#2765ff"/>
      <stop offset="1" stop-color="#17d7ff"/>
    </linearGradient>
    <linearGradient id="linear-gradient-2" x1="0.026" y1="0.98" x2="1" y2="0.02" gradientUnits="objectBoundingBox">
      <stop offset="0" stop-color="#2df8ff"/>
      <stop offset="1" stop-color="#55ff71"/>
    </linearGradient>
    <linearGradient id="linear-gradient-3" x1="0.026" y1="0.98" x2="1" y2="0.02" gradientUnits="objectBoundingBox">
      <stop offset="0" stop-color="#7555ff"/>
      <stop offset="1" stop-color="#ff714d"/>
    </linearGradient>
    <linearGradient id="linear-gradient-5" x1="0.026" y1="0.98" x2="1" y2="0.02" gradientUnits="objectBoundingBox">
      <stop offset="0" stop-color="#c1ff2d"/>
      <stop offset="1" stop-color="#2dcdff"/>
    </linearGradient>
    <linearGradient id="linear-gradient-6" x1="-0.013" y1="0.634" x2="0.68" y2="0.44" gradientUnits="objectBoundingBox">
      <stop offset="0" stop-color="#7555ff"/>
      <stop offset="1" stop-color="#222238"/>
    </linearGradient>
    <linearGradient id="linear-gradient-7" x1="-0.013" y1="0.634" x2="0.68" y2="0.44" gradientUnits="objectBoundingBox">
      <stop offset="0" stop-color="#42ffa1"/>
      <stop offset="1" stop-color="#222238"/>
    </linearGradient>
    <linearGradient id="linear-gradient-8" x1="-0.013" y1="0.634" x2="0.68" y2="0.44" gradientUnits="objectBoundingBox">
      <stop offset="0" stop-color="#ff2d6b"/>
      <stop offset="1" stop-color="#222238"/>
    </linearGradient>
    <linearGradient id="linear-gradient-9" x1="0.844" y1="0.028" x2="0" y2="0.778" gradientUnits="objectBoundingBox">
      <stop offset="0" stop-color="#ff714d"/>
      <stop offset="1" stop-color="#801736"/>
    </linearGradient>
    <linearGradient id="linear-gradient-10" x1="0.844" y1="0.028" x2="0" y2="0.778" gradientUnits="objectBoundingBox">
      <stop offset="0" stop-color="#4de7ff"/>
      <stop offset="1" stop-color="#361780"/>
    </linearGradient>
    <filter id="Path_75" x="787.246" y="298.748" width="55.121" height="52.648" filterUnits="userSpaceOnUse">
      <feOffset dy="7" input="SourceAlpha"/>
      <feGaussianBlur stdDeviation="3" result="blur"/>
      <feFlood flood-opacity="0.439"/>
      <feComposite operator="in" in2="blur"/>
      <feComposite in="SourceGraphic"/>
    </filter>
  </defs>
  <g id="Group_106" data-name="Group 106" transform="translate(-953.862 -3599)">
    <rect id="Rectangle_133" data-name="Rectangle 133" class="cls-1" width="757" height="354" rx="19" transform="translate(993.108 3614)"/>
    <path id="Rectangle_134" data-name="Rectangle 134" class="cls-2" d="M30,0H727a30,30,0,0,1,30,30v0a0,0,0,0,1,0,0H0a0,0,0,0,1,0,0v0A30,30,0,0,1,30,0Z" transform="translate(993.108 3599)"/>
    <path id="Rectangle_135" data-name="Rectangle 135" class="cls-3" d="M30,0H727a30,30,0,0,1,30,30v0a0,0,0,0,1,0,0H0a0,0,0,0,1,0,0v0A30,30,0,0,1,30,0Z" transform="translate(1750.108 3977) rotate(180)"/>
    <rect id="Rectangle_136" data-name="Rectangle 136" class="cls-4" width="147" height="192" rx="12" transform="translate(1060.108 3689)"/>
    <line id="Line_40" data-name="Line 40" class="cls-5" x2="90" transform="translate(1082.608 3732.5)"/>
    <rect id="Rectangle_229" data-name="Rectangle 229" class="cls-6" width="147" height="192" rx="12" transform="translate(1306.108 3697)"/>
    <line id="Line_41" data-name="Line 41" class="cls-7" x2="27" transform="translate(1096.608 3746.5)"/>
    <line id="Line_42" data-name="Line 42" class="cls-8" x2="59" transform="translate(1074.608 3760.5)"/>
    <line id="Line_43" data-name="Line 43" class="cls-9" x2="39" transform="translate(1141.608 3760.5)"/>
    <line id="Line_44" data-name="Line 44" class="cls-10" x2="30" transform="translate(1074.608 3774.5)"/>
    <line id="Line_45" data-name="Line 45" class="cls-8" x2="49" transform="translate(1112.608 3774.5)"/>
    <line id="Line_46" data-name="Line 46" class="cls-8" x2="57" transform="translate(1133.608 3746.5)"/>
    <line id="Line_47" data-name="Line 47" class="cls-11" x2="51" transform="translate(1076.608 3788.5)"/>
    <line id="Line_48" data-name="Line 48" class="cls-10" x2="36" transform="translate(1153.608 3802.5)"/>
    <line id="Line_49" data-name="Line 49" class="cls-8" x2="22" transform="translate(1123.608 3802.5)"/>
    <line id="Line_50" data-name="Line 50" class="cls-8" x2="11" transform="translate(1102.608 3802.5)"/>
    <line id="Line_51" data-name="Line 51" class="cls-8" x2="59" transform="translate(1076.608 3816.5)"/>
    <line id="Line_52" data-name="Line 52" class="cls-12" x2="39" transform="translate(1143.608 3816.5)"/>
    <line id="Line_53" data-name="Line 53" class="cls-10" x2="30" transform="translate(1076.608 3830.5)"/>
    <line id="Line_54" data-name="Line 54" class="cls-8" x2="49" transform="translate(1114.608 3830.5)"/>
    <rect id="Rectangle_137" data-name="Rectangle 137" class="cls-13" width="147" height="192" rx="12" transform="translate(1298.108 3689)"/>
    <rect id="Rectangle_138" data-name="Rectangle 138" class="cls-14" width="147" height="192" rx="12" transform="translate(1536.108 3689)"/>
    <line id="Line_55" data-name="Line 55" class="cls-5" x2="90" transform="translate(1320.608 3732.5)"/>
    <line id="Line_70" data-name="Line 70" class="cls-5" x2="90" transform="translate(1558.608 3732.5)"/>
    <line id="Line_56" data-name="Line 56" class="cls-7" x2="27" transform="translate(1334.608 3746.5)"/>
    <line id="Line_71" data-name="Line 71" class="cls-7" x2="27" transform="translate(1572.608 3746.5)"/>
    <line id="Line_57" data-name="Line 57" class="cls-8" x2="59" transform="translate(1312.608 3760.5)"/>
    <line id="Line_72" data-name="Line 72" class="cls-8" x2="59" transform="translate(1550.608 3760.5)"/>
    <line id="Line_58" data-name="Line 58" class="cls-9" x2="39" transform="translate(1379.608 3760.5)"/>
    <line id="Line_73" data-name="Line 73" class="cls-9" x2="39" transform="translate(1617.608 3760.5)"/>
    <line id="Line_59" data-name="Line 59" class="cls-10" x2="30" transform="translate(1312.608 3774.5)"/>
    <line id="Line_74" data-name="Line 74" class="cls-10" x2="30" transform="translate(1550.608 3774.5)"/>
    <line id="Line_60" data-name="Line 60" class="cls-8" x2="49" transform="translate(1350.608 3774.5)"/>
    <line id="Line_75" data-name="Line 75" class="cls-8" x2="49" transform="translate(1588.608 3774.5)"/>
    <line id="Line_61" data-name="Line 61" class="cls-8" x2="57" transform="translate(1371.608 3746.5)"/>
    <line id="Line_76" data-name="Line 76" class="cls-8" x2="57" transform="translate(1609.608 3746.5)"/>
    <line id="Line_62" data-name="Line 62" class="cls-11" x2="51" transform="translate(1314.608 3788.5)"/>
    <line id="Line_77" data-name="Line 77" class="cls-11" x2="51" transform="translate(1552.608 3788.5)"/>
    <line id="Line_63" data-name="Line 63" class="cls-10" x2="36" transform="translate(1391.608 3802.5)"/>
    <line id="Line_78" data-name="Line 78" class="cls-10" x2="36" transform="translate(1629.608 3802.5)"/>
    <line id="Line_64" data-name="Line 64" class="cls-8" x2="22" transform="translate(1361.608 3802.5)"/>
    <line id="Line_79" data-name="Line 79" class="cls-8" x2="22" transform="translate(1599.608 3802.5)"/>
    <line id="Line_65" data-name="Line 65" class="cls-8" x2="11" transform="translate(1340.608 3802.5)"/>
    <line id="Line_80" data-name="Line 80" class="cls-8" x2="11" transform="translate(1578.608 3802.5)"/>
    <line id="Line_66" data-name="Line 66" class="cls-8" x2="59" transform="translate(1314.608 3816.5)"/>
    <line id="Line_81" data-name="Line 81" class="cls-8" x2="59" transform="translate(1552.608 3816.5)"/>
    <line id="Line_67" data-name="Line 67" class="cls-12" x2="39" transform="translate(1381.608 3816.5)"/>
    <line id="Line_82" data-name="Line 82" class="cls-12" x2="39" transform="translate(1619.608 3816.5)"/>
    <line id="Line_68" data-name="Line 68" class="cls-10" x2="30" transform="translate(1314.608 3830.5)"/>
    <line id="Line_83" data-name="Line 83" class="cls-10" x2="30" transform="translate(1552.608 3830.5)"/>
    <line id="Line_69" data-name="Line 69" class="cls-8" x2="49" transform="translate(1352.608 3830.5)"/>
    <line id="Line_84" data-name="Line 84" class="cls-8" x2="49" transform="translate(1590.608 3830.5)"/>
    <rect id="Rectangle_139" data-name="Rectangle 139" class="cls-15" width="88" height="11" rx="5.5" transform="matrix(0.899, -0.438, 0.438, 0.899, 953.862, 3882.604)"/>
    <rect id="Rectangle_140" data-name="Rectangle 140" class="cls-16" width="88" height="11" rx="5.5" transform="matrix(0.899, -0.438, 0.438, 0.899, 969.862, 3896.604)"/>
    <rect id="Rectangle_141" data-name="Rectangle 141" class="cls-17" width="88" height="11" rx="5.5" transform="matrix(0.899, -0.438, 0.438, 0.899, 969.862, 3921.604)"/>
    <path id="Path_73" data-name="Path 73" class="cls-18" d="M1735,4213s13-27.6,38.936-36.776c-25.933-5.149-38.936,21.24-38.936,21.24Z" transform="translate(15.108 -266)"/>
    <path id="Path_74" data-name="Path 74" class="cls-19" d="M33.062,1.476s-6.392.213-17.825,9.476S0,28,0,28" transform="translate(1749.608 3909.5)"/>
    <g class="cls-26" transform="matrix(1, 0, 0, 1, 953.86, 3599)">
      <path id="Path_75-2" data-name="Path 75" class="cls-20" d="M1735,4216.4s9.945-29.557,37.121-30.074c-25.687-14.83-37.121,11.141-37.121,11.141Z" transform="translate(-938.75 -3881)"/>
    </g>
    <path id="Path_76" data-name="Path 76" class="cls-19" d="M34.214,2.582S26.325-1,14.891,8.266,0,28,0,28" transform="translate(1746.608 3900.5)"/>
    <text id="sass" class="cls-21" transform="translate(1137.972 3669)"><tspan x="-18.292" y="0">sass</tspan></text>
    <text id="html" class="cls-21" transform="translate(1370.972 3669)"><tspan x="-20.833" y="0">html</tspan></text>
    <text id="javascript" class="cls-21" transform="translate(1606.972 3669)"><tspan x="-42.245" y="0">javascript</tspan></text>
    <g id="Group_33" data-name="Group 33" transform="translate(62.108 -243.534)">
      <path id="Path_77" data-name="Path 77" class="cls-22" d="M1377.673,4222.733s-12.482-43.849-68.483-43.849-63.237,43.849-63.237,43.849" transform="translate(-1.173 -2.199)"/>
      <path id="Path_80" data-name="Path 80" class="cls-23" d="M2.565.167,4.02.157c.354,0,0-.354,0,0,0,1.534-1.161,3.429-2.7,3.429H0l.517-.074C.517,2.1,1.148.167,2.565.167Z" transform="translate(1246.058 4212.648) rotate(11)"/>
      <g id="Group_20" data-name="Group 20" transform="translate(1246.437 4203.131) rotate(14)">
        <path id="Path_78" data-name="Path 78" class="cls-23" d="M2.565.167,4.02.157c.354,0,0-.354,0,0,0,1.534-1.161,3.429-2.7,3.429H0l.517-.074C.517,2.1,1.148.167,2.565.167Z" transform="translate(3.816 1.117) rotate(11)"/>
        <path id="Path_79" data-name="Path 79" class="cls-23" d="M2.565.167,4.02.157c.354,0,0-.354,0,0,0,1.534-1.161,3.429-2.7,3.429H0l.517-.074C.517,2.1,1.148.167,2.565.167Z" transform="translate(0 3.755) rotate(-64)"/>
      </g>
      <g id="Group_21" data-name="Group 21" transform="translate(1252.653 4195.067) rotate(25)">
        <path id="Path_78-2" data-name="Path 78" class="cls-23" d="M2.565.167,4.02.157c.354,0,0-.354,0,0,0,1.534-1.161,3.429-2.7,3.429H0l.517-.074C.517,2.1,1.148.167,2.565.167Z" transform="translate(3.816 1.117) rotate(11)"/>
        <path id="Path_79-2" data-name="Path 79" class="cls-23" d="M2.565.167,4.02.157c.354,0,0-.354,0,0,0,1.534-1.161,3.429-2.7,3.429H0l.517-.074C.517,2.1,1.148.167,2.565.167Z" transform="translate(0 3.755) rotate(-64)"/>
      </g>
      <g id="Group_22" data-name="Group 22" transform="matrix(0.883, 0.469, -0.469, 0.883, 1259.711, 4187.422)">
        <path id="Path_78-3" data-name="Path 78" class="cls-23" d="M2.565.167,4.02.157c.354,0,0-.354,0,0,0,1.534-1.161,3.429-2.7,3.429H0l.517-.074C.517,2.1,1.148.167,2.565.167Z" transform="translate(3.816 1.117) rotate(11)"/>
        <path id="Path_79-3" data-name="Path 79" class="cls-23" d="M2.565.167,4.02.157c.354,0,0-.354,0,0,0,1.534-1.161,3.429-2.7,3.429H0l.517-.074C.517,2.1,1.148.167,2.565.167Z" transform="translate(0 3.755) rotate(-64)"/>
      </g>
      <path id="Path_81" data-name="Path 81" class="cls-23" d="M2.565.167,4.02.157c.354,0,0-.354,0,0,0,1.534-1.161,3.429-2.7,3.429H0l.517-.074C.517,2.1,1.148.167,2.565.167Z" transform="translate(1242.243 4215.285) rotate(-64)"/>
      <g id="Group_23" data-name="Group 23" transform="matrix(0.883, 0.469, -0.469, 0.883, 1259.711, 4187.422)">
        <path id="Path_78-4" data-name="Path 78" class="cls-23" d="M2.565.167,4.02.157c.354,0,0-.354,0,0,0,1.534-1.161,3.429-2.7,3.429H0l.517-.074C.517,2.1,1.148.167,2.565.167Z" transform="translate(3.816 1.117) rotate(11)"/>
        <path id="Path_79-4" data-name="Path 79" class="cls-23" d="M2.565.167,4.02.157c.354,0,0-.354,0,0,0,1.534-1.161,3.429-2.7,3.429H0l.517-.074C.517,2.1,1.148.167,2.565.167Z" transform="translate(0 3.755) rotate(-64)"/>
      </g>
      <g id="Group_24" data-name="Group 24" transform="matrix(0.755, 0.656, -0.656, 0.755, 1267.565, 4181.561)">
        <path id="Path_78-5" data-name="Path 78" class="cls-23" d="M2.565.167,4.02.157c.354,0,0-.354,0,0,0,1.534-1.161,3.429-2.7,3.429H0l.517-.074C.517,2.1,1.148.167,2.565.167Z" transform="translate(3.816 1.117) rotate(11)"/>
        <path id="Path_79-5" data-name="Path 79" class="cls-23" d="M2.565.167,4.02.157c.354,0,0-.354,0,0,0,1.534-1.161,3.429-2.7,3.429H0l.517-.074C.517,2.1,1.148.167,2.565.167Z" transform="translate(0 3.755) rotate(-64)"/>
      </g>
      <g id="Group_25" data-name="Group 25" transform="translate(1276.619 4176.734) rotate(43)">
        <path id="Path_78-6" data-name="Path 78" class="cls-23" d="M2.565.167,4.02.157c.354,0,0-.354,0,0,0,1.534-1.161,3.429-2.7,3.429H0l.517-.074C.517,2.1,1.148.167,2.565.167Z" transform="translate(3.816 1.117) rotate(11)"/>
        <path id="Path_79-6" data-name="Path 79" class="cls-23" d="M2.565.167,4.02.157c.354,0,0-.354,0,0,0,1.534-1.161,3.429-2.7,3.429H0l.517-.074C.517,2.1,1.148.167,2.565.167Z" transform="translate(0 3.755) rotate(-64)"/>
      </g>
      <g id="Group_26" data-name="Group 26" transform="translate(1288.809 4173.889) rotate(58)">
        <path id="Path_78-7" data-name="Path 78" class="cls-23" d="M2.565.167,4.02.157c.354,0,0-.354,0,0,0,1.534-1.161,3.429-2.7,3.429H0l.517-.074C.517,2.1,1.148.167,2.565.167Z" transform="translate(3.816 1.117) rotate(11)"/>
        <path id="Path_79-7" data-name="Path 79" class="cls-23" d="M2.565.167,4.02.157c.354,0,0-.354,0,0,0,1.534-1.161,3.429-2.7,3.429H0l.517-.074C.517,2.1,1.148.167,2.565.167Z" transform="translate(0 3.755) rotate(-64)"/>
      </g>
      <g id="Group_27" data-name="Group 27" transform="translate(1304.603 4171.929) rotate(67)">
        <path id="Path_78-8" data-name="Path 78" class="cls-23" d="M2.565.167,4.02.157c.354,0,0-.354,0,0,0,1.534-1.161,3.429-2.7,3.429H0l.517-.074C.517,2.1,1.148.167,2.565.167Z" transform="translate(3.816 1.117) rotate(11)"/>
        <path id="Path_79-8" data-name="Path 79" class="cls-23" d="M2.565.167,4.02.157c.354,0,0-.354,0,0,0,1.534-1.161,3.429-2.7,3.429H0l.517-.074C.517,2.1,1.148.167,2.565.167Z" transform="translate(0 3.755) rotate(-64)"/>
      </g>
      <g id="Group_28" data-name="Group 28" transform="matrix(0.191, 0.982, -0.982, 0.191, 1321.29, 4172.914)">
        <path id="Path_78-9" data-name="Path 78" class="cls-23" d="M2.565.167,4.02.157c.354,0,0-.354,0,0,0,1.534-1.161,3.429-2.7,3.429H0l.517-.074C.517,2.1,1.148.167,2.565.167Z" transform="translate(3.816 1.117) rotate(11)"/>
        <path id="Path_79-9" data-name="Path 79" class="cls-23" d="M2.565.167,4.02.157c.354,0,0-.354,0,0,0,1.534-1.161,3.429-2.7,3.429H0l.517-.074C.517,2.1,1.148.167,2.565.167Z" transform="translate(0 3.755) rotate(-64)"/>
      </g>
      <g id="Group_29" data-name="Group 29" transform="matrix(0.191, 0.982, -0.982, 0.191, 1336.336, 4175.649)">
        <path id="Path_78-10" data-name="Path 78" class="cls-23" d="M2.565.167,4.02.157c.354,0,0-.354,0,0,0,1.534-1.161,3.429-2.7,3.429H0l.517-.074C.517,2.1,1.148.167,2.565.167Z" transform="translate(3.816 1.117) rotate(11)"/>
        <path id="Path_79-10" data-name="Path 79" class="cls-23" d="M2.565.167,4.02.157c.354,0,0-.354,0,0,0,1.534-1.161,3.429-2.7,3.429H0l.517-.074C.517,2.1,1.148.167,2.565.167Z" transform="translate(0 3.755) rotate(-64)"/>
      </g>
      <g id="Group_30" data-name="Group 30" transform="translate(1350.037 4182.04) rotate(99)">
        <path id="Path_78-11" data-name="Path 78" class="cls-23" d="M2.565.167,4.02.157c.354,0,0-.354,0,0,0,1.534-1.161,3.429-2.7,3.429H0l.517-.074C.517,2.1,1.148.167,2.565.167Z" transform="translate(3.816 1.117) rotate(11)"/>
        <path id="Path_79-11" data-name="Path 79" class="cls-23" d="M2.565.167,4.02.157c.354,0,0-.354,0,0,0,1.534-1.161,3.429-2.7,3.429H0l.517-.074C.517,2.1,1.148.167,2.565.167Z" transform="translate(0 3.755) rotate(-64)"/>
      </g>
      <g id="Group_31" data-name="Group 31" transform="translate(1366.511 4194.569) rotate(113)">
        <path id="Path_78-12" data-name="Path 78" class="cls-23" d="M2.565.167,4.02.157c.354,0,0-.354,0,0,0,1.534-1.161,3.429-2.7,3.429H0l.517-.074C.517,2.1,1.148.167,2.565.167Z" transform="translate(3.816 1.117) rotate(11)"/>
        <path id="Path_79-12" data-name="Path 79" class="cls-23" d="M2.565.167,4.02.157c.354,0,0-.354,0,0,0,1.534-1.161,3.429-2.7,3.429H0l.517-.074C.517,2.1,1.148.167,2.565.167Z" transform="translate(0 3.755) rotate(-64)"/>
      </g>
      <g id="Group_32" data-name="Group 32" transform="translate(1373.35 4202.776) rotate(113)">
        <path id="Path_78-13" data-name="Path 78" class="cls-23" d="M2.565.167,4.02.157c.354,0,0-.354,0,0,0,1.534-1.161,3.429-2.7,3.429H0l.517-.074C.517,2.1,1.148.167,2.565.167Z" transform="translate(3.816 1.117) rotate(11)"/>
        <path id="Path_79-13" data-name="Path 79" class="cls-23" d="M2.565.167,4.02.157c.354,0,0-.354,0,0,0,1.534-1.161,3.429-2.7,3.429H0l.517-.074C.517,2.1,1.148.167,2.565.167Z" transform="translate(0 3.755) rotate(-64)"/>
      </g>
    </g>
    <text id="PREMIUM" class="cls-24" transform="translate(1369.108 3967)"><tspan x="-33.377" y="0">PREMIUM</tspan></text>
    <line id="Line_85" data-name="Line 85" class="cls-25" x2="168" transform="translate(1285.608 3614.5)"/>
  </g>
</svg>
