<svg width="1122" height="768" viewBox="0 0 1122 768" fill="none" xmlns="http://www.w3.org/2000/svg">
<path d="M32 76.6296H1028C1036.49 76.6296 1044.63 80.001 1050.63 86.0022C1056.63 92.0034 1060 100.143 1060 108.63H0C0 100.143 3.37142 92.0034 9.37258 86.0022C15.3737 80.001 23.5131 76.6296 32 76.6296V76.6296Z" fill="url(#paint0_linear)"/>
<path d="M1028 667.63L32 667.63C23.5131 667.63 15.3737 664.258 9.37256 658.257C3.37139 652.256 0 644.117 0 635.63V108.63L1060 108.63V635.63C1060 644.117 1056.63 652.256 1050.63 658.257C1044.63 664.258 1036.49 667.63 1028 667.63V667.63Z" fill="#292943"/>
<path opacity="0.67" d="M41.5 97.6296C44.5376 97.6296 47 95.1672 47 92.1296C47 89.092 44.5376 86.6296 41.5 86.6296C38.4624 86.6296 36 89.092 36 92.1296C36 95.1672 38.4624 97.6296 41.5 97.6296Z" fill="white"/>
<path opacity="0.67" d="M66.5 97.6296C69.5376 97.6296 72 95.1672 72 92.1296C72 89.092 69.5376 86.6296 66.5 86.6296C63.4624 86.6296 61 89.092 61 92.1296C61 95.1672 63.4624 97.6296 66.5 97.6296Z" fill="white"/>
<path opacity="0.67" d="M91.5 97.6296C94.5376 97.6296 97 95.1672 97 92.1296C97 89.092 94.5376 86.6296 91.5 86.6296C88.4624 86.6296 86 89.092 86 92.1296C86 95.1672 88.4624 97.6296 91.5 97.6296Z" fill="white"/>
<g filter="url(#filter0_d)">
<path d="M1027.5 88.1296L1017.97 97.6556" stroke="white" stroke-linecap="round"/>
</g>
<g filter="url(#filter1_d)">
<path d="M1017.97 88.1296L1027.5 97.6556" stroke="white" stroke-linecap="round"/>
</g>
<path d="M472.522 433.39H401.256C398.353 433.39 396 435.743 396 438.645C396 441.548 398.353 443.901 401.256 443.901H472.522C475.425 443.901 477.778 441.548 477.778 438.645C477.778 435.743 475.425 433.39 472.522 433.39Z" fill="#171726"/>
<path d="M467.979 505.802H401.256C398.353 505.802 396 508.155 396 511.057C396 513.96 398.353 516.313 401.256 516.313H467.979C470.882 516.313 473.235 513.96 473.235 511.057C473.235 508.155 470.882 505.802 467.979 505.802Z" fill="#171726"/>
<path d="M431.633 554.855H401.256C398.353 554.855 396 557.208 396 560.11C396 563.013 398.353 565.366 401.256 565.366H431.633C434.536 565.366 436.889 563.013 436.889 560.11C436.889 557.208 434.536 554.855 431.633 554.855Z" fill="#171726"/>
<path d="M486.152 578.214H403.528C400.625 578.214 398.272 580.567 398.272 583.469C398.272 586.372 400.625 588.725 403.528 588.725H486.152C489.055 588.725 491.408 586.372 491.408 583.469C491.408 580.567 489.055 578.214 486.152 578.214Z" fill="url(#paint1_linear)"/>
<path d="M837.117 407.695H401.256C398.353 407.695 396 410.048 396 412.95C396 415.853 398.353 418.206 401.256 418.206H837.117C840.02 418.206 842.373 415.853 842.373 412.95C842.373 410.048 840.02 407.695 837.117 407.695Z" fill="#171726"/>
<path d="M925.71 407.695H861.259C858.356 407.695 856.003 410.048 856.003 412.95C856.003 415.853 858.356 418.206 861.259 418.206H925.71C928.613 418.206 930.966 415.853 930.966 412.95C930.966 410.048 928.613 407.695 925.71 407.695Z" fill="url(#paint2_linear)"/>
<path d="M711.042 433.39H495.528C492.625 433.39 490.272 435.743 490.272 438.645C490.272 441.548 492.625 443.901 495.528 443.901H711.042C713.945 443.901 716.298 441.548 716.298 438.645C716.298 435.743 713.945 433.39 711.042 433.39Z" fill="#171726"/>
<path d="M669.018 459.084H403.528C400.625 459.084 398.272 461.437 398.272 464.339C398.272 467.242 400.625 469.595 403.528 469.595H669.018C671.921 469.595 674.274 467.242 674.274 464.339C674.274 461.437 671.921 459.084 669.018 459.084Z" fill="#171726"/>
<path d="M544.078 482.443H401.256C398.353 482.443 396 484.796 396 487.698C396 490.601 398.353 492.954 401.256 492.954H544.078C546.981 492.954 549.334 490.601 549.334 487.698C549.334 484.796 546.981 482.443 544.078 482.443Z" fill="#171726"/>
<path d="M738.302 459.084H694.295C691.392 459.084 689.039 461.437 689.039 464.339C689.039 467.242 691.392 469.595 694.295 469.595H738.302C741.205 469.595 743.558 467.242 743.558 464.339C743.558 461.437 741.205 459.084 738.302 459.084Z" fill="#171726"/>
<path d="M872.327 459.084H763.579C760.676 459.084 758.323 461.437 758.323 464.339C758.323 467.242 760.676 469.595 763.579 469.595H872.327C875.23 469.595 877.583 467.242 877.583 464.339C877.583 461.437 875.23 459.084 872.327 459.084Z" fill="#171726"/>
<path d="M544.078 482.443H401.256C398.353 482.443 396 484.796 396 487.698C396 490.601 398.353 492.954 401.256 492.954H544.078C546.981 492.954 549.334 490.601 549.334 487.698C549.334 484.796 546.981 482.443 544.078 482.443Z" fill="url(#paint3_linear)"/>
<path d="M793.956 482.443H567.084C564.181 482.443 561.828 484.796 561.828 487.698C561.828 490.601 564.181 492.954 567.084 492.954H793.956C796.859 492.954 799.212 490.601 799.212 487.698C799.212 484.796 796.859 482.443 793.956 482.443Z" fill="#171726"/>
<path d="M604.277 529.161H403.528C400.625 529.161 398.272 531.514 398.272 534.416C398.272 537.319 400.625 539.672 403.528 539.672H604.277C607.18 539.672 609.533 537.319 609.533 534.416C609.533 531.514 607.18 529.161 604.277 529.161Z" fill="#171726"/>
<path d="M813.265 529.161H629.554C626.651 529.161 624.298 531.514 624.298 534.416C624.298 537.319 626.651 539.672 629.554 539.672H813.265C816.168 539.672 818.521 537.319 818.521 534.416C818.521 531.514 816.168 529.161 813.265 529.161Z" fill="url(#paint4_linear)"/>
<path d="M966.6 529.161H838.543C835.64 529.161 833.287 531.514 833.287 534.416C833.287 537.319 835.64 539.672 838.543 539.672H966.6C969.503 539.672 971.856 537.319 971.856 534.416C971.856 531.514 969.503 529.161 966.6 529.161Z" fill="#171726"/>
<path d="M540.67 554.855H458.046C455.143 554.855 452.79 557.208 452.79 560.11C452.79 563.013 455.143 565.366 458.046 565.366H540.67C543.573 565.366 545.926 563.013 545.926 560.11C545.926 557.208 543.573 554.855 540.67 554.855Z" fill="#171726"/>
<path d="M742.845 578.214H511.43C508.527 578.214 506.174 580.567 506.174 583.469C506.174 586.372 508.527 588.725 511.43 588.725H742.845C745.748 588.725 748.101 586.372 748.101 583.469C748.101 580.567 745.748 578.214 742.845 578.214Z" fill="#171726"/>
<path d="M634.943 601.573H403.528C400.625 601.573 398.272 603.926 398.272 606.828C398.272 609.731 400.625 612.084 403.528 612.084H634.943C637.846 612.084 640.199 609.731 640.199 606.828C640.199 603.926 637.846 601.573 634.943 601.573Z" fill="#171726"/>
<path d="M675.832 554.855H567.084C564.181 554.855 561.828 557.208 561.828 560.11C561.828 563.013 564.181 565.366 567.084 565.366H675.832C678.735 565.366 681.088 563.013 681.088 560.11C681.088 557.208 678.735 554.855 675.832 554.855Z" fill="#171726"/>
<path d="M663.338 624.932H401.256C398.353 624.932 396 627.285 396 630.187C396 633.09 398.353 635.443 401.256 635.443H663.338C666.241 635.443 668.594 633.09 668.594 630.187C668.594 627.285 666.241 624.932 663.338 624.932Z" fill="#171726"/>
<path d="M711.042 624.932H687.48C684.577 624.932 682.224 627.285 682.224 630.187C682.224 633.09 684.577 635.443 687.48 635.443H711.042C713.945 635.443 716.298 633.09 716.298 630.187C716.298 627.285 713.945 624.932 711.042 624.932Z" fill="#171726"/>
<path d="M758.746 624.932H735.184C732.281 624.932 729.928 627.285 729.928 630.187C729.928 633.09 732.281 635.443 735.184 635.443H758.746C761.649 635.443 764.002 633.09 764.002 630.187C764.002 627.285 761.649 624.932 758.746 624.932Z" fill="url(#paint5_linear)"/>
<path d="M11.548 117.545L308.744 96.6992C308.744 96.6992 299.91 74.8126 294.452 83.7111C288.993 92.6097 277.439 101.328 239.819 41.9237C202.198 -17.4806 229.665 105.287 202.205 78.016C174.745 50.7454 190.356 117.171 170.367 92.4185C150.377 67.6657 133.459 -17.5193 115.034 23.3078C96.6085 64.1348 98.7327 59.7305 86.2561 46.614C73.7796 33.4975 69.5708 112.26 45.435 89.0139C21.2992 65.7675 34.5605 107.417 22.4341 90.6272C10.3077 73.8376 11.548 117.545 11.548 117.545Z" fill="url(#paint6_linear)"/>
<path d="M1051.49 645.446L754.828 671.4C754.828 671.4 764.035 693.122 769.336 684.134C774.638 675.147 786.035 666.235 824.657 724.955C863.278 783.676 833.713 661.455 861.626 688.236C889.539 715.018 872.793 648.9 893.197 673.294C913.601 697.688 931.977 782.53 949.688 741.41C967.398 700.29 965.351 704.728 978.046 717.622C990.741 730.515 993.59 651.727 1018.11 674.544C1042.63 697.36 1028.66 655.964 1041.07 672.535C1053.48 689.106 1051.49 645.446 1051.49 645.446Z" fill="url(#paint7_linear)"/>
<path d="M856 175.63H666C659.373 175.63 654 181.002 654 187.63V316.63C654 323.257 659.373 328.63 666 328.63H856C862.627 328.63 868 323.257 868 316.63V187.63C868 181.002 862.627 175.63 856 175.63Z" fill="url(#paint8_linear)"/>
<path d="M1110 175.63H920C913.373 175.63 908 181.002 908 187.63V316.63C908 323.257 913.373 328.63 920 328.63H1110C1116.63 328.63 1122 323.257 1122 316.63V187.63C1122 181.002 1116.63 175.63 1110 175.63Z" fill="url(#paint9_linear)"/>
<path d="M599 177.13H409C403.201 177.13 398.5 181.831 398.5 187.63V316.63C398.5 322.429 403.201 327.13 409 327.13H599C604.799 327.13 609.5 322.429 609.5 316.63V187.63C609.5 181.831 604.799 177.13 599 177.13Z" stroke="#222238" stroke-width="3" stroke-dasharray="12 12"/>
<path d="M570.978 187.612L387.438 236.822C381.036 238.538 377.238 245.12 378.954 251.522L412.365 376.136C414.082 382.538 420.663 386.336 427.065 384.62L610.605 335.41C617.007 333.693 620.806 327.112 619.089 320.71L585.678 196.096C583.962 189.694 577.38 185.895 570.978 187.612Z" fill="url(#paint10_linear)"/>
<path opacity="0.3" d="M413.363 259.865L529.769 225.347" stroke="white" stroke-width="5" stroke-linecap="round"/>
<path opacity="0.71" d="M438.028 267.458L472.949 257.102" stroke="white" stroke-width="5" stroke-linecap="round"/>
<path opacity="0.79" d="M416.131 288.858L492.441 266.23" stroke="white" stroke-width="5" stroke-linecap="round"/>
<path opacity="0.14" d="M502.788 263.161L553.23 248.203" stroke="white" stroke-width="5" stroke-linecap="round"/>
<path opacity="0.49" d="M422.688 301.82L461.49 290.314" stroke="white" stroke-width="5" stroke-linecap="round"/>
<path opacity="0.79" d="M471.837 287.246L535.213 268.452" stroke="white" stroke-width="5" stroke-linecap="round"/>
<path opacity="0.79" d="M485.884 253.267L559.607 231.406" stroke="white" stroke-width="5" stroke-linecap="round"/>
<path opacity="0.53" d="M431.832 314.015L497.795 294.454" stroke="white" stroke-width="5" stroke-linecap="round"/>
<path opacity="0.49" d="M537.981 297.446L584.543 283.638" stroke="white" stroke-width="5" stroke-linecap="round"/>
<path opacity="0.79" d="M499.179 308.952L527.634 300.514" stroke="white" stroke-width="5" stroke-linecap="round"/>
<path opacity="0.79" d="M472.018 317.006L486.245 312.787" stroke="white" stroke-width="5" stroke-linecap="round"/>
<path opacity="0.79" d="M444.947 339.94L521.257 317.311" stroke="white" stroke-width="5" stroke-linecap="round"/>
<path opacity="0.19" d="M531.604 314.244L582.046 299.286" stroke="white" stroke-width="5" stroke-linecap="round"/>
<path opacity="0.49" d="M451.504 352.903L490.306 341.397" stroke="white" stroke-width="5" stroke-linecap="round"/>
<path opacity="0.79" d="M500.653 338.329L564.03 319.535" stroke="white" stroke-width="5" stroke-linecap="round"/>
<path opacity="0.3" d="M685.93 203.292L807.341 202.197" stroke="white" stroke-width="5" stroke-linecap="round"/>
<path opacity="0.71" d="M707.547 217.39L743.97 217.061" stroke="white" stroke-width="5" stroke-linecap="round"/>
<path opacity="0.79" d="M680.599 231.925L760.19 231.207" stroke="white" stroke-width="5" stroke-linecap="round"/>
<path opacity="0.14" d="M770.982 231.109L823.593 230.635" stroke="white" stroke-width="5" stroke-linecap="round"/>
<path opacity="0.49" d="M683.329 246.192L723.8 245.828" stroke="white" stroke-width="5" stroke-linecap="round"/>
<path opacity="0.79" d="M734.591 245.73L800.693 245.134" stroke="white" stroke-width="5" stroke-linecap="round"/>
<path opacity="0.79" d="M757.46 216.939L834.353 216.246" stroke="white" stroke-width="5" stroke-linecap="round"/>
<path opacity="0.53" d="M688.758 260.435L757.557 259.815" stroke="white" stroke-width="5" stroke-linecap="round"/>
<path opacity="0.49" d="M795.362 273.767L843.926 273.328" stroke="white" stroke-width="5" stroke-linecap="round"/>
<path opacity="0.79" d="M754.891 274.132L784.57 273.864" stroke="white" stroke-width="5" stroke-linecap="round"/>
<path opacity="0.79" d="M726.563 274.387L741.401 274.253" stroke="white" stroke-width="5" stroke-linecap="round"/>
<path opacity="0.79" d="M694.219 288.971L773.81 288.253" stroke="white" stroke-width="5" stroke-linecap="round"/>
<path opacity="0.19" d="M784.602 288.156L837.212 287.682" stroke="white" stroke-width="5" stroke-linecap="round"/>
<path opacity="0.49" d="M696.949 303.239L737.419 302.875" stroke="white" stroke-width="5" stroke-linecap="round"/>
<path opacity="0.79" d="M748.211 302.777L814.312 302.181" stroke="white" stroke-width="5" stroke-linecap="round"/>
<path opacity="0.3" d="M939.93 203.292L1061.34 202.197" stroke="white" stroke-width="5" stroke-linecap="round"/>
<path opacity="0.71" d="M961.547 217.39L997.97 217.061" stroke="white" stroke-width="5" stroke-linecap="round"/>
<path opacity="0.79" d="M934.599 231.925L1014.19 231.207" stroke="white" stroke-width="5" stroke-linecap="round"/>
<path opacity="0.14" d="M1024.98 231.109L1077.59 230.635" stroke="white" stroke-width="5" stroke-linecap="round"/>
<path opacity="0.49" d="M937.329 246.192L977.8 245.828" stroke="white" stroke-width="5" stroke-linecap="round"/>
<path opacity="0.79" d="M988.591 245.73L1054.69 245.134" stroke="white" stroke-width="5" stroke-linecap="round"/>
<path opacity="0.79" d="M1011.46 216.939L1088.35 216.246" stroke="white" stroke-width="5" stroke-linecap="round"/>
<path opacity="0.53" d="M942.758 260.435L1011.56 259.815" stroke="white" stroke-width="5" stroke-linecap="round"/>
<path opacity="0.49" d="M1049.36 273.767L1097.93 273.328" stroke="white" stroke-width="5" stroke-linecap="round"/>
<path opacity="0.79" d="M1008.89 274.132L1038.57 273.864" stroke="white" stroke-width="5" stroke-linecap="round"/>
<path opacity="0.79" d="M980.563 274.387L995.401 274.253" stroke="white" stroke-width="5" stroke-linecap="round"/>
<path opacity="0.79" d="M948.219 288.971L1027.81 288.253" stroke="white" stroke-width="5" stroke-linecap="round"/>
<path opacity="0.19" d="M1038.6 288.156L1091.21 287.682" stroke="white" stroke-width="5" stroke-linecap="round"/>
<path opacity="0.49" d="M950.949 303.239L991.419 302.875" stroke="white" stroke-width="5" stroke-linecap="round"/>
<path opacity="0.79" d="M1002.21 302.777L1068.31 302.181" stroke="white" stroke-width="5" stroke-linecap="round"/>
<path opacity="0.25" d="M386.5 399.872V635.13" stroke="#171726"/>
<path d="M306 148.63H41C37.134 148.63 34 151.764 34 155.63V634.63C34 638.496 37.134 641.63 41 641.63H306C309.866 641.63 313 638.496 313 634.63V155.63C313 151.764 309.866 148.63 306 148.63Z" fill="#3A3956"/>
<path d="M279 166.63H67C58.7157 166.63 52 173.345 52 181.63C52 189.914 58.7157 196.63 67 196.63H279C287.284 196.63 294 189.914 294 181.63C294 173.345 287.284 166.63 279 166.63Z" fill="#222238"/>
<path opacity="0.2" d="M71.4292 181.563C71.4292 182.206 71.2821 182.725 70.9878 183.118C70.6935 183.511 70.2951 183.708 69.7925 183.708C69.2795 183.708 68.8758 183.545 68.5815 183.219V185.255H67.8589V179.403H68.519L68.5542 179.872C68.8485 179.507 69.2573 179.325 69.7808 179.325C70.2886 179.325 70.6896 179.516 70.9839 179.899C71.2808 180.282 71.4292 180.815 71.4292 181.497V181.563ZM70.7065 181.481C70.7065 181.005 70.605 180.628 70.4019 180.352C70.1987 180.076 69.9201 179.938 69.5659 179.938C69.1284 179.938 68.8003 180.132 68.5815 180.52V182.54C68.7977 182.925 69.1284 183.118 69.5737 183.118C69.9201 183.118 70.1948 182.981 70.3979 182.708C70.6037 182.432 70.7065 182.023 70.7065 181.481ZM74.9604 183.212C74.6792 183.542 74.2664 183.708 73.7222 183.708C73.2716 183.708 72.9279 183.578 72.6909 183.317C72.4565 183.054 72.3381 182.666 72.3354 182.153V179.403H73.0581V182.134C73.0581 182.774 73.3185 183.094 73.8394 183.094C74.3914 183.094 74.7586 182.889 74.9409 182.477V179.403H75.6636V183.63H74.9761L74.9604 183.212ZM77.7456 178.38V179.403H78.5347V179.962H77.7456V182.583C77.7456 182.752 77.7808 182.88 77.8511 182.966C77.9214 183.049 78.0412 183.091 78.2104 183.091C78.2938 183.091 78.4084 183.075 78.5542 183.044V183.63C78.3641 183.682 78.1792 183.708 77.9995 183.708C77.6766 183.708 77.4331 183.61 77.269 183.415C77.105 183.219 77.0229 182.942 77.0229 182.583V179.962H76.2534V179.403H77.0229V178.38H77.7456ZM82.5464 181.673L82.0933 182.145V183.63H81.3706V177.63H82.0933V181.259L82.48 180.794L83.7964 179.403H84.6753L83.0308 181.169L84.8667 183.63H84.019L82.5464 181.673ZM87.0972 183.708C86.5243 183.708 86.0581 183.52 85.6987 183.145C85.3394 182.768 85.1597 182.264 85.1597 181.634V181.501C85.1597 181.081 85.2391 180.708 85.3979 180.38C85.5594 180.049 85.7834 179.791 86.0698 179.606C86.3589 179.419 86.6714 179.325 87.0073 179.325C87.5568 179.325 87.9839 179.506 88.2886 179.868C88.5933 180.23 88.7456 180.748 88.7456 181.423V181.723H85.8823C85.8927 182.14 86.0138 182.477 86.2456 182.735C86.48 182.99 86.7769 183.118 87.1362 183.118C87.3914 183.118 87.6076 183.066 87.7847 182.962C87.9618 182.857 88.1167 182.719 88.2495 182.548L88.6909 182.891C88.3368 183.436 87.8055 183.708 87.0972 183.708ZM87.0073 179.919C86.7157 179.919 86.4709 180.025 86.2729 180.239C86.075 180.45 85.9526 180.747 85.9058 181.13H88.0229V181.075C88.0021 180.708 87.9032 180.424 87.7261 180.223C87.549 180.02 87.3094 179.919 87.0073 179.919ZM90.9136 182.571L91.8979 179.403H92.6714L90.9722 184.282C90.7091 184.985 90.2912 185.337 89.7183 185.337L89.5815 185.325L89.312 185.274V184.688L89.5073 184.704C89.7521 184.704 89.9422 184.654 90.0776 184.555C90.2157 184.456 90.3289 184.275 90.4175 184.012L90.5776 183.583L89.0698 179.403H89.8589L90.9136 182.571ZM97.062 182.634L97.8745 179.403H98.5972L97.3667 183.63H96.7808L95.7534 180.426L94.7534 183.63H94.1675L92.9409 179.403H93.6597L94.4917 182.567L95.4761 179.403H96.0581L97.062 182.634ZM99.144 181.477C99.144 181.063 99.2248 180.691 99.3862 180.36C99.5503 180.029 99.7769 179.774 100.066 179.594C100.358 179.415 100.69 179.325 101.062 179.325C101.638 179.325 102.102 179.524 102.457 179.923C102.813 180.321 102.992 180.851 102.992 181.512V181.563C102.992 181.975 102.912 182.344 102.753 182.673C102.597 182.998 102.372 183.252 102.078 183.434C101.786 183.617 101.45 183.708 101.07 183.708C100.497 183.708 100.032 183.509 99.6753 183.11C99.3211 182.712 99.144 182.184 99.144 181.528V181.477ZM99.8706 181.563C99.8706 182.032 99.9787 182.408 100.195 182.692C100.414 182.976 100.705 183.118 101.07 183.118C101.437 183.118 101.729 182.975 101.945 182.688C102.161 182.399 102.269 181.996 102.269 181.477C102.269 181.014 102.158 180.639 101.937 180.352C101.718 180.063 101.427 179.919 101.062 179.919C100.705 179.919 100.417 180.061 100.199 180.344C99.98 180.628 99.8706 181.035 99.8706 181.563ZM105.941 180.051C105.832 180.033 105.713 180.024 105.585 180.024C105.111 180.024 104.79 180.226 104.621 180.63V183.63H103.898V179.403H104.601L104.613 179.891C104.85 179.514 105.186 179.325 105.621 179.325C105.761 179.325 105.868 179.343 105.941 179.38V180.051ZM106.355 181.481C106.355 180.833 106.509 180.312 106.816 179.919C107.123 179.523 107.526 179.325 108.023 179.325C108.518 179.325 108.91 179.494 109.199 179.833V177.63H109.921V183.63H109.257L109.222 183.176C108.933 183.531 108.531 183.708 108.015 183.708C107.526 183.708 107.126 183.507 106.816 183.106C106.509 182.705 106.355 182.182 106.355 181.536V181.481ZM107.078 181.563C107.078 182.042 107.177 182.417 107.375 182.688C107.572 182.959 107.846 183.094 108.195 183.094C108.653 183.094 108.988 182.889 109.199 182.477V180.536C108.983 180.137 108.651 179.938 108.203 179.938C107.848 179.938 107.572 180.075 107.375 180.348C107.177 180.622 107.078 181.027 107.078 181.563ZM115.64 183.63C115.598 183.546 115.565 183.398 115.539 183.184C115.203 183.533 114.802 183.708 114.335 183.708C113.919 183.708 113.576 183.591 113.308 183.356C113.042 183.119 112.91 182.82 112.91 182.458C112.91 182.018 113.076 181.676 113.41 181.434C113.746 181.19 114.217 181.067 114.824 181.067H115.527V180.735C115.527 180.482 115.451 180.282 115.3 180.134C115.149 179.982 114.927 179.907 114.632 179.907C114.375 179.907 114.158 179.972 113.984 180.102C113.809 180.232 113.722 180.39 113.722 180.575H112.996C112.996 180.364 113.07 180.161 113.218 179.966C113.369 179.768 113.572 179.611 113.828 179.497C114.085 179.382 114.368 179.325 114.675 179.325C115.162 179.325 115.544 179.447 115.82 179.692C116.096 179.934 116.239 180.269 116.25 180.696V182.641C116.25 183.029 116.299 183.338 116.398 183.567V183.63H115.64ZM114.441 183.079C114.667 183.079 114.882 183.02 115.085 182.903C115.289 182.786 115.436 182.634 115.527 182.446V181.579H114.96C114.075 181.579 113.632 181.838 113.632 182.356C113.632 182.583 113.708 182.76 113.859 182.887C114.01 183.015 114.204 183.079 114.441 183.079ZM118.066 179.403L118.089 179.934C118.412 179.528 118.834 179.325 119.355 179.325C120.248 179.325 120.699 179.829 120.707 180.837V183.63H119.984V180.833C119.981 180.528 119.911 180.303 119.773 180.157C119.638 180.011 119.425 179.938 119.136 179.938C118.902 179.938 118.696 180.001 118.519 180.126C118.342 180.251 118.204 180.415 118.105 180.618V183.63H117.382V179.403H118.066ZM121.621 181.481C121.621 180.833 121.774 180.312 122.082 179.919C122.389 179.523 122.791 179.325 123.289 179.325C123.783 179.325 124.175 179.494 124.464 179.833V177.63H125.187V183.63H124.523L124.488 183.176C124.199 183.531 123.796 183.708 123.281 183.708C122.791 183.708 122.391 183.507 122.082 183.106C121.774 182.705 121.621 182.182 121.621 181.536V181.481ZM122.343 181.563C122.343 182.042 122.442 182.417 122.64 182.688C122.838 182.959 123.111 183.094 123.46 183.094C123.919 183.094 124.253 182.889 124.464 182.477V180.536C124.248 180.137 123.916 179.938 123.468 179.938C123.114 179.938 122.838 180.075 122.64 180.348C122.442 180.622 122.343 181.027 122.343 181.563ZM131.867 181.563C131.867 182.206 131.72 182.725 131.425 183.118C131.131 183.511 130.733 183.708 130.23 183.708C129.717 183.708 129.313 183.545 129.019 183.219V185.255H128.296V179.403H128.957L128.992 179.872C129.286 179.507 129.695 179.325 130.218 179.325C130.726 179.325 131.127 179.516 131.421 179.899C131.718 180.282 131.867 180.815 131.867 181.497V181.563ZM131.144 181.481C131.144 181.005 131.042 180.628 130.839 180.352C130.636 180.076 130.358 179.938 130.003 179.938C129.566 179.938 129.238 180.132 129.019 180.52V182.54C129.235 182.925 129.566 183.118 130.011 183.118C130.358 183.118 130.632 182.981 130.835 182.708C131.041 182.432 131.144 182.023 131.144 181.481ZM134.832 180.051C134.722 180.033 134.604 180.024 134.476 180.024C134.002 180.024 133.681 180.226 133.511 180.63V183.63H132.789V179.403H133.492L133.503 179.891C133.74 179.514 134.076 179.325 134.511 179.325C134.652 179.325 134.759 179.343 134.832 179.38V180.051ZM137.175 183.708C136.602 183.708 136.136 183.52 135.777 183.145C135.417 182.768 135.238 182.264 135.238 181.634V181.501C135.238 181.081 135.317 180.708 135.476 180.38C135.638 180.049 135.861 179.791 136.148 179.606C136.437 179.419 136.75 179.325 137.085 179.325C137.635 179.325 138.062 179.506 138.367 179.868C138.671 180.23 138.824 180.748 138.824 181.423V181.723H135.96C135.971 182.14 136.092 182.477 136.324 182.735C136.558 182.99 136.855 183.118 137.214 183.118C137.47 183.118 137.686 183.066 137.863 182.962C138.04 182.857 138.195 182.719 138.328 182.548L138.769 182.891C138.415 183.436 137.884 183.708 137.175 183.708ZM137.085 179.919C136.794 179.919 136.549 180.025 136.351 180.239C136.153 180.45 136.031 180.747 135.984 181.13H138.101V181.075C138.08 180.708 137.981 180.424 137.804 180.223C137.627 180.02 137.388 179.919 137.085 179.919ZM142.125 182.509C142.125 182.313 142.05 182.162 141.902 182.055C141.756 181.946 141.5 181.852 141.132 181.774C140.768 181.696 140.477 181.602 140.261 181.493C140.048 181.384 139.889 181.253 139.785 181.102C139.683 180.951 139.632 180.772 139.632 180.563C139.632 180.217 139.778 179.924 140.07 179.684C140.364 179.445 140.739 179.325 141.195 179.325C141.674 179.325 142.062 179.449 142.359 179.696C142.658 179.943 142.808 180.26 142.808 180.645H142.082C142.082 180.447 141.997 180.277 141.828 180.134C141.661 179.99 141.45 179.919 141.195 179.919C140.932 179.919 140.726 179.976 140.578 180.091C140.429 180.205 140.355 180.355 140.355 180.54C140.355 180.714 140.424 180.846 140.562 180.934C140.7 181.023 140.949 181.107 141.308 181.188C141.67 181.269 141.963 181.365 142.187 181.477C142.411 181.589 142.576 181.725 142.683 181.884C142.792 182.04 142.847 182.231 142.847 182.458C142.847 182.835 142.696 183.139 142.394 183.368C142.092 183.594 141.7 183.708 141.218 183.708C140.88 183.708 140.58 183.648 140.32 183.528C140.059 183.408 139.855 183.242 139.707 183.028C139.561 182.812 139.488 182.579 139.488 182.329H140.21C140.223 182.571 140.32 182.764 140.5 182.907C140.682 183.048 140.921 183.118 141.218 183.118C141.492 183.118 141.71 183.063 141.875 182.954C142.041 182.842 142.125 182.693 142.125 182.509ZM146.25 182.509C146.25 182.313 146.175 182.162 146.027 182.055C145.881 181.946 145.625 181.852 145.257 181.774C144.893 181.696 144.602 181.602 144.386 181.493C144.173 181.384 144.014 181.253 143.91 181.102C143.808 180.951 143.757 180.772 143.757 180.563C143.757 180.217 143.903 179.924 144.195 179.684C144.489 179.445 144.864 179.325 145.32 179.325C145.799 179.325 146.187 179.449 146.484 179.696C146.783 179.943 146.933 180.26 146.933 180.645H146.207C146.207 180.447 146.122 180.277 145.953 180.134C145.786 179.99 145.575 179.919 145.32 179.919C145.057 179.919 144.851 179.976 144.703 180.091C144.554 180.205 144.48 180.355 144.48 180.54C144.48 180.714 144.549 180.846 144.687 180.934C144.825 181.023 145.074 181.107 145.433 181.188C145.795 181.269 146.088 181.365 146.312 181.477C146.536 181.589 146.701 181.725 146.808 181.884C146.917 182.04 146.972 182.231 146.972 182.458C146.972 182.835 146.821 183.139 146.519 183.368C146.217 183.594 145.825 183.708 145.343 183.708C145.005 183.708 144.705 183.648 144.445 183.528C144.184 183.408 143.98 183.242 143.832 183.028C143.686 182.812 143.613 182.579 143.613 182.329H144.335C144.348 182.571 144.445 182.764 144.625 182.907C144.807 183.048 145.046 183.118 145.343 183.118C145.617 183.118 145.835 183.063 146 182.954C146.166 182.842 146.25 182.693 146.25 182.509ZM151.652 183.708C151.079 183.708 150.613 183.52 150.253 183.145C149.894 182.768 149.714 182.264 149.714 181.634V181.501C149.714 181.081 149.794 180.708 149.953 180.38C150.114 180.049 150.338 179.791 150.625 179.606C150.914 179.419 151.226 179.325 151.562 179.325C152.111 179.325 152.539 179.506 152.843 179.868C153.148 180.23 153.3 180.748 153.3 181.423V181.723H150.437C150.447 182.14 150.569 182.477 150.8 182.735C151.035 182.99 151.332 183.118 151.691 183.118C151.946 183.118 152.162 183.066 152.339 182.962C152.516 182.857 152.671 182.719 152.804 182.548L153.246 182.891C152.891 183.436 152.36 183.708 151.652 183.708ZM151.562 179.919C151.27 179.919 151.026 180.025 150.828 180.239C150.63 180.45 150.507 180.747 150.46 181.13H152.578V181.075C152.557 180.708 152.458 180.424 152.281 180.223C152.104 180.02 151.864 179.919 151.562 179.919ZM154.824 179.403L154.847 179.934C155.17 179.528 155.592 179.325 156.113 179.325C157.006 179.325 157.457 179.829 157.464 180.837V183.63H156.742V180.833C156.739 180.528 156.669 180.303 156.531 180.157C156.395 180.011 156.183 179.938 155.894 179.938C155.66 179.938 155.454 180.001 155.277 180.126C155.1 180.251 154.962 180.415 154.863 180.618V183.63H154.14V179.403H154.824ZM159.535 178.38V179.403H160.324V179.962H159.535V182.583C159.535 182.752 159.57 182.88 159.64 182.966C159.71 183.049 159.83 183.091 160 183.091C160.083 183.091 160.197 183.075 160.343 183.044V183.63C160.153 183.682 159.968 183.708 159.789 183.708C159.466 183.708 159.222 183.61 159.058 183.415C158.894 183.219 158.812 182.942 158.812 182.583V179.962H158.042V179.403H158.812V178.38H159.535ZM162.925 183.708C162.352 183.708 161.886 183.52 161.527 183.145C161.167 182.768 160.988 182.264 160.988 181.634V181.501C160.988 181.081 161.067 180.708 161.226 180.38C161.388 180.049 161.611 179.791 161.898 179.606C162.187 179.419 162.5 179.325 162.835 179.325C163.385 179.325 163.812 179.506 164.117 179.868C164.421 180.23 164.574 180.748 164.574 181.423V181.723H161.71C161.721 182.14 161.842 182.477 162.074 182.735C162.308 182.99 162.605 183.118 162.964 183.118C163.22 183.118 163.436 183.066 163.613 182.962C163.79 182.857 163.945 182.719 164.078 182.548L164.519 182.891C164.165 183.436 163.634 183.708 162.925 183.708ZM162.835 179.919C162.544 179.919 162.299 180.025 162.101 180.239C161.903 180.45 161.781 180.747 161.734 181.13H163.851V181.075C163.83 180.708 163.731 180.424 163.554 180.223C163.377 180.02 163.138 179.919 162.835 179.919ZM167.457 180.051C167.347 180.033 167.229 180.024 167.101 180.024C166.627 180.024 166.306 180.226 166.136 180.63V183.63H165.414V179.403H166.117L166.128 179.891C166.365 179.514 166.701 179.325 167.136 179.325C167.277 179.325 167.384 179.343 167.457 179.38V180.051Z" fill="black"/>
<path d="M115 346.63C119.418 346.63 123 343.048 123 338.63C123 334.211 119.418 330.63 115 330.63C110.582 330.63 107 334.211 107 338.63C107 343.048 110.582 346.63 115 346.63Z" fill="#FF2D6B"/>
<path d="M115 374.63C119.418 374.63 123 371.048 123 366.63C123 362.211 119.418 358.63 115 358.63C110.582 358.63 107 362.211 107 366.63C107 371.048 110.582 374.63 115 374.63Z" fill="#7555FF"/>
<path d="M115 402.63C119.418 402.63 123 399.048 123 394.63C123 390.211 119.418 386.63 115 386.63C110.582 386.63 107 390.211 107 394.63C107 399.048 110.582 402.63 115 402.63Z" fill="#18D2FF"/>
<path d="M115 430.63C119.418 430.63 123 427.048 123 422.63C123 418.211 119.418 414.63 115 414.63C110.582 414.63 107 418.211 107 422.63C107 427.048 110.582 430.63 115 430.63Z" fill="#FF714D"/>
<path d="M115 458.63C119.418 458.63 123 455.048 123 450.63C123 446.211 119.418 442.63 115 442.63C110.582 442.63 107 446.211 107 450.63C107 455.048 110.582 458.63 115 458.63Z" fill="#7555FF"/>
<path d="M115 486.63C119.418 486.63 123 483.048 123 478.63C123 474.211 119.418 470.63 115 470.63C110.582 470.63 107 474.211 107 478.63C107 483.048 110.582 486.63 115 486.63Z" fill="#53FF4D"/>
<path opacity="0.2" d="M181.5 336.63H132.5C131.119 336.63 130 337.749 130 339.13C130 340.51 131.119 341.63 132.5 341.63H181.5C182.881 341.63 184 340.51 184 339.13C184 337.749 182.881 336.63 181.5 336.63Z" fill="white"/>
<path opacity="0.2" d="M165.5 364.63H132.5C131.119 364.63 130 365.749 130 367.13C130 368.51 131.119 369.63 132.5 369.63H165.5C166.881 369.63 168 368.51 168 367.13C168 365.749 166.881 364.63 165.5 364.63Z" fill="white"/>
<path opacity="0.2" d="M199.5 392.63H132.5C131.119 392.63 130 393.749 130 395.13C130 396.51 131.119 397.63 132.5 397.63H199.5C200.881 397.63 202 396.51 202 395.13C202 393.749 200.881 392.63 199.5 392.63Z" fill="white"/>
<path opacity="0.2" d="M174.5 420.63H132.5C131.119 420.63 130 421.749 130 423.13C130 424.51 131.119 425.63 132.5 425.63H174.5C175.881 425.63 177 424.51 177 423.13C177 421.749 175.881 420.63 174.5 420.63Z" fill="white"/>
<path opacity="0.2" d="M191.5 448.63H132.5C131.119 448.63 130 449.749 130 451.13C130 452.51 131.119 453.63 132.5 453.63H191.5C192.881 453.63 194 452.51 194 451.13C194 449.749 192.881 448.63 191.5 448.63Z" fill="white"/>
<path opacity="0.2" d="M151.5 476.63H132.5C131.119 476.63 130 477.749 130 479.13C130 480.51 131.119 481.63 132.5 481.63H151.5C152.881 481.63 154 480.51 154 479.13C154 477.749 152.881 476.63 151.5 476.63Z" fill="white"/>
<path opacity="0.2" d="M219.5 336.63H190.5C189.119 336.63 188 337.749 188 339.13C188 340.51 189.119 341.63 190.5 341.63H219.5C220.881 341.63 222 340.51 222 339.13C222 337.749 220.881 336.63 219.5 336.63Z" fill="white"/>
<path opacity="0.2" d="M176 367.13C176 365.749 174.881 364.63 173.5 364.63C172.119 364.63 171 365.749 171 367.13C171 368.51 172.119 369.63 173.5 369.63C174.881 369.63 176 368.51 176 367.13Z" fill="white"/>
<path opacity="0.2" d="M226.5 365.63H183.5C182.119 365.63 181 366.749 181 368.13C181 369.51 182.119 370.63 183.5 370.63H226.5C227.881 370.63 229 369.51 229 368.13C229 366.749 227.881 365.63 226.5 365.63Z" fill="white"/>
<path opacity="0.2" d="M225.5 420.63H183.5C182.119 420.63 181 421.749 181 423.13C181 424.51 182.119 425.63 183.5 425.63H225.5C226.881 425.63 228 424.51 228 423.13C228 421.749 226.881 420.63 225.5 420.63Z" fill="white"/>
<path opacity="0.2" d="M236.5 448.63H203.5C202.119 448.63 201 449.749 201 451.13C201 452.51 202.119 453.63 203.5 453.63H236.5C237.881 453.63 239 452.51 239 451.13C239 449.749 237.881 448.63 236.5 448.63Z" fill="white"/>
<path opacity="0.2" d="M210.5 476.63H160.5C159.119 476.63 158 477.749 158 479.13C158 480.51 159.119 481.63 160.5 481.63H210.5C211.881 481.63 213 480.51 213 479.13C213 477.749 211.881 476.63 210.5 476.63Z" fill="white"/>
<path d="M118.37 244.61C118.36 245.441 118.625 246.252 119.123 246.918C119.684 247.651 120.359 248.288 121.123 248.806C122.019 249.426 122.961 249.979 123.94 250.459C124.99 250.98 126.066 251.518 127.168 252.073C128.27 252.627 129.346 253.221 130.396 253.853C131.412 254.459 132.357 255.178 133.213 255.995C134.03 256.773 134.707 257.686 135.213 258.695C135.73 259.767 135.988 260.947 135.966 262.138C135.975 263.243 135.78 264.341 135.389 265.376C135.023 266.341 134.497 267.238 133.834 268.03C133.157 268.827 132.37 269.524 131.497 270.1C130.586 270.706 129.608 271.204 128.582 271.587C127.516 271.984 126.416 272.282 125.296 272.477C124.153 272.677 122.994 272.778 121.833 272.777C120.229 272.779 118.632 272.577 117.079 272.177C115.618 271.813 114.229 271.204 112.971 270.377C111.796 269.601 110.81 268.571 110.086 267.364C109.341 266.079 108.966 264.613 109 263.129C108.985 262.376 109.121 261.628 109.4 260.929C109.637 260.345 109.975 259.808 110.4 259.344C110.767 258.942 111.208 258.617 111.7 258.385C112.109 258.184 112.556 258.074 113.011 258.062C113.39 258.048 113.76 258.169 114.058 258.404C114.205 258.537 114.32 258.703 114.393 258.887C114.466 259.072 114.495 259.272 114.479 259.47C114.477 259.705 114.451 259.94 114.401 260.17C114.349 260.418 114.294 260.688 114.235 260.982C114.176 261.275 114.121 261.598 114.069 261.95C114.015 262.332 113.989 262.718 113.991 263.104C113.966 263.94 114.182 264.766 114.614 265.483C115.034 266.152 115.603 266.716 116.277 267.13C117.014 267.579 117.821 267.903 118.664 268.089C119.582 268.299 120.522 268.405 121.464 268.402C122.61 268.4 123.751 268.262 124.864 267.991C125.936 267.742 126.965 267.333 127.916 266.778C128.775 266.279 129.521 265.609 130.108 264.808C130.669 264.032 130.964 263.095 130.949 262.138C130.961 261.252 130.698 260.384 130.196 259.654C129.645 258.874 128.969 258.19 128.196 257.629C127.303 256.969 126.358 256.383 125.369 255.878C124.312 255.33 123.236 254.775 122.141 254.215C121.046 253.654 119.97 253.064 118.913 252.445C117.904 251.86 116.957 251.175 116.086 250.401C115.282 249.69 114.605 248.846 114.086 247.907C113.573 246.941 113.313 245.86 113.333 244.767C113.34 243.64 113.612 242.531 114.125 241.529C114.699 240.411 115.514 239.435 116.512 238.673C117.711 237.762 119.063 237.07 120.503 236.63C122.315 236.076 124.203 235.812 126.098 235.848C127.448 235.847 128.79 236.051 130.079 236.454C131.323 236.831 132.495 237.413 133.549 238.174C134.538 238.886 135.373 239.791 136.004 240.834C136.624 241.867 136.946 243.052 136.933 244.257C136.927 245.035 136.799 245.807 136.552 246.546C136.256 247.412 135.845 248.234 135.329 248.991C134.871 249.722 134.26 250.346 133.539 250.82C133.022 251.177 132.416 251.384 131.788 251.42C131.436 251.434 131.092 251.312 130.829 251.078C130.698 250.943 130.597 250.781 130.533 250.604C130.469 250.427 130.443 250.238 130.457 250.051C130.471 249.641 130.55 249.236 130.692 248.851C130.896 248.29 131.165 247.755 131.492 247.257C131.812 246.749 132.074 246.208 132.274 245.643C132.434 245.193 132.52 244.72 132.528 244.243C132.54 243.617 132.352 243.003 131.99 242.492C131.6 241.962 131.094 241.53 130.509 241.23C129.792 240.862 129.024 240.605 128.23 240.467C127.269 240.291 126.293 240.205 125.315 240.213C124.281 240.193 123.249 240.328 122.254 240.613C121.478 240.836 120.744 241.186 120.083 241.65C119.552 242.019 119.11 242.504 118.792 243.068C118.525 243.538 118.38 244.069 118.37 244.61ZM160.155 265.483C159.779 265.992 159.376 266.482 158.949 266.95C158.428 267.527 157.862 268.062 157.257 268.55C156.639 269.056 155.965 269.491 155.249 269.846C154.582 270.185 153.846 270.366 153.097 270.374C152.701 270.385 152.307 270.318 151.937 270.175C151.568 270.033 151.23 269.818 150.945 269.543C150.284 268.852 149.776 268.03 149.455 267.13C149.102 267.533 148.716 267.906 148.301 268.245C147.832 268.631 147.33 268.974 146.801 269.272C146.263 269.577 145.696 269.829 145.109 270.025C144.542 270.217 143.947 270.316 143.348 270.318C142.719 270.314 142.098 270.182 141.522 269.93C140.928 269.674 140.392 269.299 139.947 268.83C139.471 268.326 139.098 267.735 138.847 267.089C138.566 266.351 138.428 265.567 138.441 264.779C138.445 263.761 138.583 262.748 138.849 261.766C139.128 260.724 139.508 259.711 139.984 258.744C140.465 257.762 141.038 256.828 141.696 255.956C142.326 255.112 143.052 254.344 143.858 253.667C144.607 253.036 145.44 252.512 146.333 252.112C147.166 251.734 148.07 251.538 148.984 251.535C149.23 251.522 149.474 251.583 149.684 251.711C149.845 251.82 149.988 251.955 150.105 252.111C150.216 252.261 150.323 252.407 150.428 252.551C150.527 252.689 150.662 252.798 150.819 252.864C150.972 252.928 151.133 252.971 151.298 252.991C151.464 253.01 151.631 253.02 151.798 253.02C151.941 253.02 152.088 253.016 152.238 253.01C152.388 253.003 152.535 253 152.678 253C152.862 252.998 153.046 253.018 153.226 253.059C153.397 253.099 153.553 253.187 153.676 253.313C153.819 253.468 153.922 253.656 153.976 253.861C154.057 254.174 154.094 254.496 154.084 254.82C154.076 255.518 154.009 256.215 153.884 256.903C153.751 257.665 153.607 258.448 153.454 259.25C153.301 260.052 153.157 260.854 153.024 261.656C152.896 262.409 152.829 263.171 152.824 263.935C152.812 264.421 152.873 264.907 153.005 265.376C153.044 265.532 153.137 265.67 153.268 265.765C153.398 265.86 153.558 265.905 153.719 265.894C154.017 265.888 154.311 265.818 154.58 265.689C154.9 265.54 155.205 265.36 155.49 265.151C155.81 264.917 156.117 264.666 156.409 264.398C156.716 264.117 157.006 263.827 157.28 263.527C157.966 262.765 158.612 261.968 159.216 261.14L160.155 265.483ZM143.449 263.938C143.448 264.255 143.471 264.572 143.517 264.887C143.556 265.172 143.639 265.449 143.762 265.709C143.87 265.938 144.031 266.14 144.231 266.296C144.446 266.452 144.708 266.531 144.974 266.521C145.224 266.515 145.471 266.457 145.697 266.349C145.923 266.241 146.123 266.086 146.285 265.895C146.698 265.446 147.041 264.938 147.303 264.388C147.589 263.803 147.821 263.195 147.997 262.569C148.149 262.056 148.263 261.533 148.339 261.004L149.532 255.253C148.985 255.255 148.448 255.393 147.967 255.653C147.434 255.938 146.949 256.304 146.529 256.739C146.062 257.216 145.646 257.741 145.287 258.304C144.909 258.891 144.582 259.509 144.309 260.153C144.041 260.781 143.828 261.433 143.673 262.099C143.529 262.701 143.454 263.318 143.449 263.938ZM157.221 262.764C157.954 262.138 158.548 261.616 159.001 261.199C159.454 260.781 159.846 260.4 160.175 260.055C160.49 259.722 160.787 259.372 161.065 259.008L162.014 257.756C162.379 257.273 162.823 256.683 163.344 255.986C163.865 255.288 164.543 254.418 165.378 253.374C165.553 253.134 165.744 252.905 165.949 252.69C166.159 252.466 166.391 252.265 166.643 252.09C166.904 251.911 167.186 251.766 167.484 251.66C167.814 251.545 168.162 251.489 168.511 251.494C169.002 251.473 169.493 251.542 169.959 251.699C170.245 251.8 170.501 251.972 170.702 252.199C170.85 252.374 170.945 252.588 170.976 252.815C171 253 171.013 253.186 171.015 253.373C170.994 253.747 170.865 254.107 170.643 254.41C170.392 254.793 170.118 255.161 169.821 255.51C169.521 255.862 169.237 256.184 168.97 256.478C168.775 256.663 168.618 256.886 168.51 257.133C168.507 257.503 168.537 257.873 168.598 258.238C168.656 258.568 168.735 258.895 168.833 259.216C168.931 259.535 169.031 259.874 169.133 260.233C169.235 260.591 169.335 261.005 169.433 261.475C169.541 262.011 169.619 262.553 169.668 263.099C169.727 263.711 169.756 264.435 169.756 265.27C170.24 264.949 170.746 264.664 171.272 264.419L172.964 263.627C173.551 263.353 174.154 263.049 174.774 262.717C175.426 262.364 176.05 261.963 176.642 261.517L176.662 265.899C175.783 266.568 174.845 267.156 173.859 267.655C172.777 268.211 171.66 268.694 170.514 269.103C169.359 269.517 168.176 269.847 166.973 270.091C165.857 270.324 164.72 270.445 163.579 270.453C162.856 270.457 162.135 270.385 161.427 270.238C160.809 270.112 160.218 269.884 159.676 269.562C159.179 269.262 158.758 268.85 158.449 268.359C158.12 267.812 157.925 267.195 157.882 266.559C157.705 266.597 157.525 266.623 157.344 266.637C157.168 266.65 156.995 266.657 156.826 266.657C156.617 266.657 156.422 266.65 156.239 266.637C156.073 266.629 155.911 266.578 155.77 266.49C155.626 266.388 155.517 266.244 155.457 266.079C155.369 265.818 155.33 265.543 155.343 265.268C155.341 264.961 155.422 264.66 155.578 264.397C155.729 264.136 155.914 263.896 156.126 263.683C156.321 263.486 156.529 263.303 156.749 263.136C156.959 262.979 157.116 262.855 157.221 262.764ZM159.721 265.264C159.823 265.276 159.922 265.309 160.012 265.36C160.102 265.411 160.18 265.48 160.243 265.562C160.432 265.757 160.651 265.972 160.898 266.208C161.161 266.454 161.449 266.67 161.759 266.854C162.097 267.052 162.482 267.154 162.874 267.147C163.309 267.162 163.741 267.075 164.136 266.893C164.452 266.737 164.724 266.505 164.928 266.218C165.13 265.923 165.27 265.589 165.339 265.239C165.419 264.856 165.458 264.466 165.457 264.075C165.457 263.715 165.434 263.356 165.389 262.999C165.344 262.633 165.285 262.284 165.213 261.952C165.141 261.619 165.063 261.306 164.978 261.013C164.892 260.719 164.816 260.468 164.749 260.26L159.721 265.264ZM174.138 262.764C174.871 262.138 175.465 261.616 175.918 261.199C176.371 260.781 176.763 260.4 177.092 260.055C177.407 259.722 177.704 259.372 177.982 259.008L178.931 257.756C179.296 257.273 179.74 256.683 180.261 255.986C180.782 255.288 181.46 254.418 182.295 253.374C182.469 253.133 182.658 252.904 182.862 252.689C183.072 252.465 183.304 252.264 183.556 252.089C183.817 251.91 184.099 251.765 184.397 251.659C184.727 251.544 185.075 251.488 185.424 251.493C185.915 251.472 186.406 251.541 186.872 251.698C187.158 251.799 187.414 251.971 187.615 252.198C187.763 252.373 187.858 252.587 187.889 252.814C187.913 252.999 187.926 253.185 187.928 253.372C187.907 253.746 187.778 254.106 187.556 254.409C187.305 254.792 187.031 255.16 186.734 255.509C186.434 255.861 186.15 256.183 185.883 256.477C185.688 256.662 185.531 256.885 185.423 257.132C185.42 257.502 185.45 257.872 185.511 258.237C185.569 258.567 185.648 258.894 185.746 259.215C185.844 259.534 185.944 259.873 186.046 260.232C186.148 260.59 186.248 261.004 186.346 261.474C186.454 262.01 186.532 262.552 186.581 263.098C186.64 263.71 186.669 264.434 186.669 265.269C187.153 264.948 187.659 264.663 188.185 264.418L189.877 263.626C190.464 263.352 191.067 263.048 191.687 262.716C192.339 262.363 192.963 261.962 193.555 261.516L193.575 265.898C192.695 266.569 191.755 267.158 190.768 267.659C189.686 268.215 188.569 268.698 187.423 269.107C186.268 269.521 185.085 269.851 183.882 270.095C182.766 270.328 181.629 270.449 180.488 270.457C179.769 270.459 179.052 270.385 178.349 270.237C177.732 270.112 177.14 269.884 176.598 269.562C176.102 269.262 175.684 268.851 175.375 268.362C175.046 267.815 174.851 267.198 174.808 266.562C174.631 266.6 174.451 266.626 174.27 266.64C174.094 266.653 173.921 266.66 173.752 266.66C173.543 266.66 173.348 266.653 173.165 266.64C172.999 266.632 172.837 266.581 172.696 266.493C172.552 266.391 172.443 266.247 172.383 266.082C172.293 265.821 172.254 265.545 172.266 265.27C172.264 264.963 172.345 264.662 172.501 264.399C172.652 264.138 172.836 263.897 173.049 263.684C173.244 263.486 173.454 263.303 173.675 263.136C173.882 262.979 174.038 262.855 174.142 262.764H174.138ZM176.638 265.264C176.843 265.289 177.029 265.394 177.156 265.557C177.345 265.752 177.564 265.967 177.811 266.203C178.074 266.449 178.362 266.665 178.672 266.849C179.01 267.047 179.395 267.149 179.787 267.142C180.222 267.157 180.654 267.07 181.049 266.888C181.365 266.732 181.637 266.5 181.841 266.213C182.043 265.918 182.183 265.585 182.252 265.235C182.331 264.852 182.371 264.462 182.369 264.071C182.369 263.711 182.346 263.352 182.301 262.995C182.256 262.629 182.197 262.28 182.125 261.948C182.053 261.615 181.975 261.302 181.89 261.009C181.805 260.715 181.73 260.464 181.665 260.256L176.638 265.264ZM197.969 259.341L199.514 257.365C200.075 256.647 200.626 255.963 201.167 255.311C201.708 254.659 202.204 254.078 202.654 253.57C202.971 253.186 203.329 252.837 203.72 252.53C204.178 252.216 204.679 251.969 205.207 251.796C205.838 251.588 206.499 251.486 207.163 251.496C207.527 251.495 207.886 251.582 208.21 251.75C208.55 251.925 208.847 252.172 209.081 252.474C209.343 252.814 209.542 253.198 209.668 253.609C209.817 254.09 209.89 254.592 209.883 255.096C209.877 255.656 209.743 256.208 209.492 256.71C209.213 257.281 208.886 257.827 208.514 258.343C208.123 258.891 207.699 259.438 207.242 259.986C206.785 260.533 206.361 261.084 205.97 261.639C205.598 262.161 205.271 262.714 204.992 263.292C204.74 263.803 204.606 264.365 204.601 264.936C204.583 265.118 204.604 265.302 204.663 265.476C204.722 265.65 204.818 265.809 204.943 265.943C205.25 266.168 205.629 266.275 206.009 266.243C206.311 266.23 206.604 266.139 206.86 265.979C207.198 265.78 207.516 265.549 207.809 265.288C208.135 265.001 208.464 264.681 208.797 264.329C209.13 263.976 209.449 263.617 209.756 263.253C210.063 262.887 210.353 262.538 210.627 262.206C210.901 261.873 211.149 261.589 211.37 261.355L212.544 266.148C212.113 266.763 211.596 267.313 211.008 267.781C210.383 268.286 209.708 268.725 208.993 269.092C208.276 269.461 207.522 269.753 206.743 269.963C206.013 270.165 205.26 270.27 204.503 270.276C203.722 270.301 202.943 270.185 202.203 269.934C201.671 269.746 201.191 269.434 200.803 269.024C200.472 268.659 200.233 268.219 200.109 267.743C199.984 267.26 199.922 266.764 199.923 266.266C199.93 265.895 199.967 265.525 200.033 265.16C200.123 264.655 200.261 264.161 200.444 263.683C200.682 263.059 200.966 262.454 201.295 261.873C201.716 261.13 202.194 260.42 202.723 259.75C202.958 259.515 203.173 259.303 203.369 259.114C203.565 258.924 203.735 258.755 203.878 258.605C204.004 258.477 204.116 258.336 204.211 258.184C204.287 258.06 204.328 257.918 204.328 257.773C204.338 257.542 204.287 257.313 204.181 257.108C204.142 257.03 204.082 256.965 204.007 256.92C203.933 256.875 203.847 256.852 203.76 256.854C203.434 256.901 203.133 257.052 202.899 257.284C202.433 257.718 202.044 258.228 201.749 258.793L195.993 268.887C195.774 269.317 195.455 269.689 195.064 269.973C194.732 270.177 194.349 270.281 193.959 270.273C193.488 270.298 193.022 270.171 192.629 269.911C192.296 269.66 192.038 269.321 191.886 268.933C191.706 268.476 191.597 267.994 191.563 267.505C191.518 266.963 191.495 266.386 191.495 265.774C191.495 265.03 191.521 264.046 191.573 262.82C191.625 261.594 191.703 260.247 191.808 258.78C191.912 257.313 192.052 255.777 192.229 254.173C192.406 252.568 192.618 251.01 192.865 249.498C192.956 248.964 193.074 248.316 193.217 247.552C193.36 246.788 193.54 245.969 193.755 245.097C193.97 244.223 194.225 243.313 194.518 242.368C194.808 241.431 195.148 240.51 195.535 239.61C195.912 238.731 196.346 237.878 196.835 237.057C197.288 236.286 197.834 235.573 198.459 234.934C199.032 234.347 199.7 233.861 200.435 233.496C201.166 233.141 201.969 232.96 202.782 232.968C203.347 232.947 203.91 233.058 204.425 233.291C204.841 233.494 205.196 233.805 205.452 234.191C205.72 234.61 205.903 235.079 205.99 235.57C206.098 236.144 206.151 236.727 206.147 237.311C206.136 238.516 205.995 239.716 205.726 240.891C205.44 242.19 205.084 243.473 204.66 244.735C204.229 246.021 203.759 247.27 203.249 248.484C202.739 249.697 202.251 250.792 201.784 251.77C201.317 252.748 200.903 253.573 200.542 254.245C200.181 254.917 199.943 255.357 199.828 255.565L197.5 259.047L197.969 259.341ZM201.803 237.373C201.408 237.364 201.024 237.504 200.727 237.764C200.381 238.084 200.093 238.461 199.876 238.879C199.57 239.447 199.303 240.035 199.076 240.64C198.809 241.331 198.506 242.1 198.166 242.948C197.957 243.691 197.765 244.46 197.589 245.256C197.413 246.051 197.253 246.842 197.108 247.63C196.965 248.419 196.838 249.198 196.727 249.968C196.616 250.737 196.522 251.461 196.443 252.139C196.248 253.743 196.091 255.321 195.974 256.873C196.261 256.012 196.574 255.076 196.913 254.066C197.252 253.055 197.588 252.057 197.92 251.073C198.253 250.088 198.566 249.155 198.859 248.273C199.152 247.391 199.396 246.644 199.593 246.033C199.684 245.746 199.815 245.387 199.984 244.957L200.532 243.568C200.727 243.072 200.923 242.557 201.119 242.023C201.315 241.488 201.494 240.973 201.657 240.478C201.82 239.982 201.954 239.519 202.057 239.089C202.152 238.729 202.204 238.36 202.213 237.989C202.214 237.577 202.077 237.373 201.803 237.373ZM222.97 266.109C222.417 266.605 221.832 267.066 221.219 267.488C220.499 267.99 219.744 268.441 218.96 268.838C218.163 269.244 217.335 269.587 216.485 269.865C215.712 270.127 214.902 270.266 214.085 270.276C213.501 270.292 212.92 270.196 212.373 269.992C211.939 269.823 211.554 269.551 211.249 269.2C210.951 268.838 210.74 268.413 210.633 267.958C210.505 267.429 210.443 266.887 210.449 266.344C210.463 265.382 210.558 264.423 210.733 263.478C210.922 262.389 211.154 261.261 211.427 260.094C211.7 258.926 211.991 257.762 212.298 256.602C212.605 255.441 212.875 254.372 213.11 253.394C213.201 253.055 213.392 252.751 213.658 252.523C213.935 252.279 214.248 252.081 214.587 251.936C214.932 251.786 215.293 251.674 215.663 251.603C215.995 251.535 216.332 251.499 216.67 251.495C217.066 251.448 217.466 251.555 217.785 251.795C217.885 251.904 217.963 252.032 218.013 252.171C218.063 252.311 218.085 252.459 218.078 252.607C218.057 253.027 217.99 253.443 217.878 253.849C217.745 254.39 217.582 255.003 217.389 255.688C217.196 256.372 216.988 257.109 216.763 257.899C216.541 258.688 216.332 259.477 216.137 260.266C215.942 261.054 215.779 261.825 215.649 262.578C215.525 263.246 215.458 263.923 215.449 264.603C215.433 265.077 215.501 265.551 215.649 266.003C215.705 266.166 215.815 266.306 215.96 266.399C216.105 266.493 216.277 266.536 216.449 266.521C217.006 266.496 217.548 266.326 218.02 266.03C218.629 265.68 219.211 265.284 219.761 264.847C220.348 264.384 220.921 263.905 221.482 263.409C222.043 262.913 222.538 262.489 222.969 262.137L222.97 266.109ZM214.226 245.999C214.236 245.651 214.304 245.307 214.426 244.982C214.566 244.588 214.782 244.226 215.062 243.916C215.391 243.557 215.791 243.271 216.236 243.075C216.812 242.829 217.434 242.711 218.059 242.73C218.494 242.727 218.928 242.779 219.35 242.886C219.729 242.978 220.087 243.141 220.406 243.365C220.71 243.585 220.956 243.877 221.12 244.216C221.305 244.607 221.395 245.035 221.384 245.468C221.385 245.907 221.312 246.343 221.169 246.759C221.026 247.176 220.792 247.557 220.484 247.874C220.147 248.215 219.744 248.485 219.3 248.666C218.755 248.879 218.173 248.981 217.588 248.966C216.666 249.042 215.752 248.75 215.045 248.154C214.768 247.87 214.553 247.532 214.412 247.161C214.271 246.79 214.208 246.395 214.226 245.999ZM237.856 265.894C236.604 266.627 235.489 267.266 234.511 267.811C233.533 268.355 232.663 268.812 231.9 269.181C231.243 269.504 230.563 269.778 229.866 270.003C229.344 270.173 228.799 270.265 228.249 270.276C227.297 270.289 226.371 269.971 225.628 269.376C224.796 268.676 224.145 267.787 223.728 266.784C223.168 265.473 222.783 264.095 222.584 262.684C222.316 260.89 222.189 259.078 222.203 257.265C222.203 256.482 222.236 255.649 222.303 254.765C222.37 253.881 222.461 253 222.577 252.124C222.186 252.072 221.882 252.023 221.667 251.977C221.452 251.931 221.223 251.885 220.982 251.84C220.741 251.794 220.434 251.745 220.063 251.693C219.692 251.64 219.154 251.573 218.449 251.493C218.194 251.472 217.947 251.395 217.725 251.268C217.569 251.172 217.441 251.037 217.353 250.877C217.276 250.731 217.229 250.572 217.216 250.408C217.203 250.244 217.196 250.104 217.196 249.987C217.194 249.86 217.229 249.736 217.297 249.63C217.364 249.523 217.462 249.439 217.577 249.387C217.884 249.234 218.215 249.133 218.555 249.087C218.989 249.018 219.427 248.982 219.866 248.979C220.342 248.972 220.798 248.975 221.235 248.989C221.672 249.002 222.063 249.012 222.409 249.018C222.647 249.03 222.886 249.02 223.123 248.989C223.467 247.258 223.915 245.55 224.463 243.873C224.948 242.359 225.556 240.887 226.282 239.473C226.849 238.333 227.591 237.29 228.482 236.382C228.801 236.032 229.186 235.749 229.615 235.549C230.044 235.349 230.509 235.236 230.982 235.218C231.53 235.213 232.066 235.377 232.518 235.687C232.997 236.016 233.4 236.442 233.702 236.939C234.047 237.505 234.301 238.122 234.455 238.768C234.633 239.481 234.722 240.214 234.719 240.949C234.713 241.632 234.621 242.313 234.445 242.974C234.252 243.715 234.004 244.441 233.702 245.145C233.375 245.911 233.006 246.659 232.597 247.385C232.173 248.141 231.726 248.891 231.257 249.635C231.374 249.648 231.57 249.658 231.844 249.664C232.118 249.67 232.434 249.679 232.793 249.693C233.152 249.706 233.54 249.722 233.957 249.742C234.374 249.761 234.779 249.777 235.17 249.791L236.27 249.83C236.609 249.843 236.89 249.856 237.111 249.869C237.233 249.871 237.352 249.91 237.453 249.979C237.554 250.049 237.632 250.146 237.678 250.26C237.805 250.556 237.865 250.877 237.854 251.199C237.871 251.607 237.731 252.006 237.463 252.314C237.359 252.443 237.228 252.549 237.08 252.623C236.931 252.697 236.768 252.738 236.602 252.744H229.093C228.715 253.265 228.334 253.777 227.949 254.28C227.564 254.782 227.209 255.236 226.883 255.64C226.83 256.45 226.786 257.247 226.749 258.03C226.736 258.369 226.723 258.718 226.71 259.077C226.697 259.435 226.684 259.791 226.671 260.143C226.658 260.495 226.648 260.834 226.642 261.16C226.636 261.486 226.633 261.786 226.632 262.06C226.621 262.659 226.689 263.257 226.832 263.84C226.934 264.269 227.125 264.672 227.391 265.024C227.629 265.323 227.943 265.553 228.301 265.689C228.685 265.83 229.092 265.899 229.501 265.894C229.851 265.878 230.198 265.811 230.528 265.694C230.99 265.545 231.441 265.366 231.88 265.16C232.369 264.932 232.884 264.661 233.425 264.348C233.966 264.034 234.499 263.692 235.025 263.321C235.553 262.949 236.058 262.557 236.541 262.147C237.004 261.754 237.442 261.333 237.852 260.885L237.856 265.894ZM231.597 241.13C231.596 240.97 231.586 240.81 231.568 240.651C231.55 240.479 231.507 240.31 231.441 240.151C231.378 239.996 231.274 239.861 231.141 239.76C230.971 239.646 230.768 239.591 230.564 239.604C230.225 239.604 229.882 239.904 229.537 240.504C229.132 241.237 228.797 242.007 228.537 242.804C228.218 243.737 227.918 244.764 227.637 245.885C227.356 247.005 227.099 248.094 226.864 249.152C227.059 249.178 227.255 249.2 227.451 249.22C227.647 249.239 227.849 249.262 228.057 249.288C228.448 248.621 228.856 247.9 229.28 247.126C229.704 246.351 230.085 245.588 230.424 244.837C230.763 244.087 231.044 243.387 231.265 242.737C231.46 242.222 231.572 241.679 231.597 241.13Z" fill="url(#paint11_linear)"/>
<defs>
<filter id="filter0_d" x="1012.47" y="83.6296" width="20.526" height="20.526" filterUnits="userSpaceOnUse" color-interpolation-filters="sRGB">
<feFlood flood-opacity="0" result="BackgroundImageFix"/>
<feColorMatrix in="SourceAlpha" type="matrix" values="0 0 0 0 0 0 0 0 0 0 0 0 0 0 0 0 0 0 127 0"/>
<feOffset dy="1"/>
<feGaussianBlur stdDeviation="2.5"/>
<feColorMatrix type="matrix" values="0 0 0 0 0.0941176 0 0 0 0 1 0 0 0 0 0.305882 0 0 0 1 0"/>
<feBlend mode="normal" in2="BackgroundImageFix" result="effect1_dropShadow"/>
<feBlend mode="normal" in="SourceGraphic" in2="effect1_dropShadow" result="shape"/>
</filter>
<filter id="filter1_d" x="1012.47" y="83.6296" width="20.526" height="20.526" filterUnits="userSpaceOnUse" color-interpolation-filters="sRGB">
<feFlood flood-opacity="0" result="BackgroundImageFix"/>
<feColorMatrix in="SourceAlpha" type="matrix" values="0 0 0 0 0 0 0 0 0 0 0 0 0 0 0 0 0 0 127 0"/>
<feOffset dy="1"/>
<feGaussianBlur stdDeviation="2.5"/>
<feColorMatrix type="matrix" values="0 0 0 0 0.0941176 0 0 0 0 1 0 0 0 0 0.305882 0 0 0 1 0"/>
<feBlend mode="normal" in2="BackgroundImageFix" result="effect1_dropShadow"/>
<feBlend mode="normal" in="SourceGraphic" in2="effect1_dropShadow" result="shape"/>
</filter>
<linearGradient id="paint0_linear" x1="0" y1="108.63" x2="1060" y2="108.63" gradientUnits="userSpaceOnUse">
<stop stop-color="#2765FF"/>
<stop offset="1" stop-color="#17D7FF"/>
</linearGradient>
<linearGradient id="paint1_linear" x1="491.408" y1="583.469" x2="398.272" y2="583.469" gradientUnits="userSpaceOnUse">
<stop stop-color="#FF2D6B"/>
<stop offset="1" stop-color="#7555FF"/>
</linearGradient>
<linearGradient id="paint2_linear" x1="930.966" y1="412.95" x2="856.003" y2="412.95" gradientUnits="userSpaceOnUse">
<stop stop-color="#FF2D6B"/>
<stop offset="1" stop-color="#FF714D"/>
</linearGradient>
<linearGradient id="paint3_linear" x1="549.334" y1="487.698" x2="396" y2="487.698" gradientUnits="userSpaceOnUse">
<stop stop-color="#42C7FF"/>
<stop offset="1" stop-color="#7555FF"/>
</linearGradient>
<linearGradient id="paint4_linear" x1="624.298" y1="534.416" x2="818.521" y2="534.416" gradientUnits="userSpaceOnUse">
<stop stop-color="#2DF8FF"/>
<stop offset="1" stop-color="#55FF71"/>
</linearGradient>
<linearGradient id="paint5_linear" x1="729.928" y1="630.187" x2="762.741" y2="630.187" gradientUnits="userSpaceOnUse">
<stop stop-color="#CF2DFF"/>
<stop offset="1" stop-color="#422DFF"/>
</linearGradient>
<linearGradient id="paint6_linear" x1="153.305" y1="-7.45331" x2="160.453" y2="103.927" gradientUnits="userSpaceOnUse">
<stop stop-color="#FF2D6B"/>
<stop offset="1" stop-color="#2385FF" stop-opacity="0"/>
</linearGradient>
<linearGradient id="paint7_linear" x1="911.97" y1="772.812" x2="902.907" y2="661.622" gradientUnits="userSpaceOnUse">
<stop stop-color="#18D2FF" stop-opacity="0.341"/>
<stop offset="1" stop-color="#2385FF" stop-opacity="0"/>
</linearGradient>
<linearGradient id="paint8_linear" x1="659.564" y1="325.57" x2="801.237" y2="130.261" gradientUnits="userSpaceOnUse">
<stop stop-color="#FF429A"/>
<stop offset="1" stop-color="#4D8EFF"/>
</linearGradient>
<linearGradient id="paint9_linear" x1="913.564" y1="325.57" x2="1055.24" y2="130.261" gradientUnits="userSpaceOnUse">
<stop stop-color="#5588FF"/>
<stop offset="1" stop-color="#4DFF53"/>
</linearGradient>
<linearGradient id="paint10_linear" x1="420.055" y1="383.331" x2="506.326" y2="157.969" gradientUnits="userSpaceOnUse">
<stop stop-color="#7555FF"/>
<stop offset="1" stop-color="#FF714D"/>
</linearGradient>
<linearGradient id="paint11_linear" x1="241.206" y1="245.466" x2="194.939" y2="323.183" gradientUnits="userSpaceOnUse">
<stop stop-color="#FF714D"/>
<stop offset="1" stop-color="#FF2D6B"/>
</linearGradient>
</defs>
</svg>
