<svg xmlns="http://www.w3.org/2000/svg" xmlns:xlink="http://www.w3.org/1999/xlink" viewBox="0 0 134.108 64">
  <defs>
    <style>
      .cls-1 {
        fill: url(#linear-gradient);
      }

      .cls-2, .cls-3, .cls-6 {
        fill: #fff;
      }

      .cls-2 {
        font-size: 23px;
      }

      .cls-2, .cls-3 {
        font-family: Pacifico-Regular, Pacifico;
      }

      .cls-3 {
        font-size: 24px;
      }

      .cls-4 {
        clip-path: url(#clip-path);
      }

      .cls-5 {
        fill: url(#linear-gradient-4);
      }

      .cls-6 {
        opacity: 0.04;
      }

      .cls-7 {
        filter: url(#S);
      }
    </style>
    <linearGradient id="linear-gradient" x1="0.882" y1="0.052" x2="0.03" y2="0.942" gradientUnits="objectBoundingBox">
      <stop offset="0" stop-color="#ff2d6b"/>
      <stop offset="1" stop-color="#7555ff"/>
    </linearGradient>
    <filter id="S" x="0" y="0" width="44" height="64" filterUnits="userSpaceOnUse">
      <feOffset dy="3" input="SourceAlpha"/>
      <feGaussianBlur stdDeviation="4" result="blur"/>
      <feFlood flood-opacity="0.431"/>
      <feComposite operator="in" in2="blur"/>
      <feComposite in="SourceGraphic"/>
    </filter>
    <clipPath id="clip-path">
      <rect id="Rectangle_396" data-name="Rectangle 396" class="cls-1" width="42.038" height="42.038" rx="13" transform="translate(132.108 97.962)"/>
    </clipPath>
    <linearGradient id="linear-gradient-4" x1="0.268" y1="0.015" x2="0.882" y2="0.847" gradientUnits="objectBoundingBox">
      <stop offset="0" stop-color="#a149d1"/>
      <stop offset="0.91" stop-color="#d23a9b"/>
      <stop offset="1" stop-color="#d33a9a"/>
    </linearGradient>
  </defs>
  <g id="Group_103" data-name="Group 103" transform="translate(-129 -90)">
    <rect id="Rectangle_393" data-name="Rectangle 393" class="cls-1" width="42.038" height="42.038" rx="13" transform="translate(132.108 97.962)"/>
    <g class="cls-7" transform="matrix(1, 0, 0, 1, 129, 90)">
      <text id="S-2" data-name="S" class="cls-2" transform="translate(22 39)"><tspan x="-9.518" y="0">S</tspan></text>
    </g>
    <text id="Sasskit" class="cls-3" transform="translate(221.108 129)"><tspan x="-39.152" y="0">Sasskit</tspan></text>
    <g id="Mask_Group_2" data-name="Mask Group 2" class="cls-4">
      <path id="Path_147" data-name="Path 147" class="cls-5" d="M126.359,164.105c15.184-8.767,17.821,9.738,26.72,2.093s11.59-5.07,22.938,3.219-23.582,16.258-23.582,16.258l-26.881-9.658Z" transform="translate(1 -38)"/>
    </g>
    <g id="Mask_Group_3" data-name="Mask Group 3" class="cls-4">
      <path id="Path_148" data-name="Path 148" class="cls-6" d="M129.659,173.361c13.357-7.712,14.728-10.221,18.431-10.463s11.268,7.807,15.614,7.726,4.668-8.451,8.612-8.209,5.151,16.338,5.151,16.338l-43.541,11.67Z" transform="translate(0 -38)"/>
    </g>
  </g>
</svg>
