<svg xmlns="http://www.w3.org/2000/svg" xmlns:xlink="http://www.w3.org/1999/xlink" viewBox="0 0 138 131.354">
  <defs>
    <style>
      .cls-1 {
        fill: #161623;
      }

      .cls-2 {
        fill: url(#linear-gradient);
      }

      .cls-3 {
        fill: url(#linear-gradient-2);
      }

      .cls-4 {
        fill: url(#linear-gradient-3);
      }

      .cls-5 {
        fill: url(#linear-gradient-4);
      }

      .cls-6 {
        fill: url(#linear-gradient-5);
      }

      .cls-7 {
        fill: url(#linear-gradient-6);
      }
    </style>
    <linearGradient id="linear-gradient" x1="-0.013" y1="0.634" x2="0.68" y2="0.44" gradientUnits="objectBoundingBox">
      <stop offset="0" stop-color="#7555ff"/>
      <stop offset="1" stop-color="#222238" stop-opacity="0"/>
    </linearGradient>
    <linearGradient id="linear-gradient-2" x1="-0.013" y1="0.634" x2="0.68" y2="0.44" gradientUnits="objectBoundingBox">
      <stop offset="0" stop-color="#42ffa1"/>
      <stop offset="1" stop-color="#222238" stop-opacity="0"/>
    </linearGradient>
    <linearGradient id="linear-gradient-3" x1="-0.013" y1="0.634" x2="0.68" y2="0.44" gradientUnits="objectBoundingBox">
      <stop offset="0" stop-color="#ff2d6b"/>
      <stop offset="1" stop-color="#222238" stop-opacity="0"/>
    </linearGradient>
    <linearGradient id="linear-gradient-4" y1="0.5" x2="1" y2="0.5" gradientUnits="objectBoundingBox">
      <stop offset="0" stop-color="#7555ff"/>
      <stop offset="1" stop-color="#ff2d6b"/>
    </linearGradient>
    <linearGradient id="linear-gradient-5" x1="1" y1="0.5" x2="0" y2="0.5" gradientUnits="objectBoundingBox">
      <stop offset="0" stop-color="#42c7ff"/>
      <stop offset="1" stop-color="#7555ff"/>
    </linearGradient>
    <linearGradient id="linear-gradient-6" y1="0.5" x2="1" y2="0.5" gradientUnits="objectBoundingBox">
      <stop offset="0" stop-color="#2df8ff"/>
      <stop offset="1" stop-color="#55ff71"/>
    </linearGradient>
  </defs>
  <g id="Group_108" data-name="Group 108" transform="translate(-892.108 -4615)">
    <rect id="Rectangle_285" data-name="Rectangle 285" class="cls-1" width="45" height="13" rx="6.5" transform="translate(903.108 4615)"/>
    <g id="Group_54" data-name="Group 54" transform="matrix(0.438, -0.899, 0.899, 0.438, -3737.04, 3485.755)">
      <rect id="Rectangle_256" data-name="Rectangle 256" class="cls-2" width="61.565" height="7.696" rx="3.848" transform="matrix(0.899, -0.438, 0.438, 0.899, 917.769, 4753.016)"/>
      <rect id="Rectangle_257" data-name="Rectangle 257" class="cls-3" width="61.565" height="7.696" rx="3.848" transform="matrix(0.899, -0.438, 0.438, 0.899, 928.963, 4762.81)"/>
      <rect id="Rectangle_258" data-name="Rectangle 258" class="cls-4" width="61.565" height="7.696" rx="3.848" transform="matrix(0.899, -0.438, 0.438, 0.899, 928.963, 4780.3)"/>
    </g>
    <rect id="Rectangle_286" data-name="Rectangle 286" class="cls-1" width="43" height="13" rx="6.5" transform="translate(987.108 4615)"/>
    <rect id="Rectangle_287" data-name="Rectangle 287" class="cls-1" width="47" height="13" rx="6.5" transform="translate(968.108 4638)"/>
    <rect id="Rectangle_288" data-name="Rectangle 288" class="cls-1" width="41" height="13" rx="6.5" transform="translate(900.108 4659)"/>
    <rect id="Rectangle_289" data-name="Rectangle 289" class="cls-1" width="75" height="13" rx="6.5" transform="translate(948.108 4659)"/>
    <rect id="Rectangle_290" data-name="Rectangle 290" class="cls-1" width="51" height="13" rx="6.5" transform="translate(916.108 4680)"/>
    <rect id="Rectangle_291" data-name="Rectangle 291" class="cls-5" width="33" height="13" rx="6.5" transform="translate(976.108 4680)"/>
    <rect id="Rectangle_292" data-name="Rectangle 292" class="cls-6" width="29" height="11.939" rx="5.969" transform="translate(954.108 4615)"/>
    <rect id="Rectangle_293" data-name="Rectangle 293" class="cls-7" width="70" height="11.939" rx="5.969" transform="translate(892.108 4638.061)"/>
  </g>
</svg>
